<?xml version="1.0" encoding="utf-8"?>
<!-- Generator: Adobe Illustrator 19.0.0, SVG Export Plug-In . SVG Version: 6.00 Build 0)  -->
<svg version="1.1" id="Layer_1" xmlns="http://www.w3.org/2000/svg" xmlns:xlink="http://www.w3.org/1999/xlink" x="0px" y="0px"
	 viewBox="0 0 531.6 275.5" style="enable-background:new 0 0 531.6 275.5;" xml:space="preserve">
<style type="text/css">
	.st0{fill:#FFFFFF;}
</style>
<path class="st0" d="M472.8,101.3c-6.9-6.9-15.2-12.4-24.3-16c-9.1-3.6-18.9-5.3-28.8-5c-20.6-0.4-40.7,6.7-56.5,19.9V99
	c0.1-53-42.8-96.1-95.9-96.2c-12.8,0-25.5,2.5-37.3,7.5c-19.7,8-36.1,22.4-46.6,40.8c-16.7-29.5-47.7-48-81.6-48.7
	c-16.6-0.3-33,3.7-47.6,11.5c-14.7,7.9-27,19.4-35.8,33.5C9.6,61.6,4.6,77.7,3.7,94.3c-2.4,52.2,37.4,96.7,89.5,100.2l-41.9,72.2
	h62.5l69.3-120.1c15.8,28,44.6,46.1,76.6,48.1l-41.6,72.2H281l48.7-84.5c0.2,36,21.4,68.6,54.1,83.4c21.7,9.2,46.2,9.6,68.3,1.3
	c9.2-4.6,17.3-11.2,23.5-19.4v19.1H528V8.5h-55.2V101.3z M138.5,120.1c-8,13.5-22.5,21.8-38.2,21.7c-7.7,0.6-15.5-0.9-22.5-4.2
	c-6.7-3.9-12.3-9.5-16.2-16.2c-3.7-7-5.6-14.8-5.5-22.8c0-24.2,19.5-43.9,43.7-44.2c7.7,0,15.3,2.1,22,6c6.8,3.7,12.4,9.2,16.2,16
	c3.9,6.6,6,14.1,6,21.7C144,105.8,142.1,113.4,138.5,120.1z M305.4,120.1c-3.8,6.7-9.4,12.3-16.2,16c-6.6,4-14.2,6-22,5.8
	c-7.7-0.1-15.2-2.1-22-5.8c-6.7-3.9-12.2-9.5-16-16.2c-8-13.6-8-30.6,0-44.2c4-6.6,9.5-12.1,16.2-16c6.6-4,14.2-6,22-6
	c7.7,0.1,15.3,2.1,22,6c20.8,12.1,28.1,38.6,16.5,59.6L305.4,120.1z M470.2,198.6c-10,18.9-31.8,28.2-52.3,22.2
	c-10.7-2.7-20-9.2-26.2-18.3c-6-8.8-8.6-19.5-7.6-30.1c1.1-10.6,5.8-20.5,13.3-28c16.7-16.6,43.3-17.9,61.5-2.9
	C476,155.4,480.7,179.4,470.2,198.6z"/>
</svg>
