<?xml version="1.0" encoding="utf-8"?>
<!-- Generator: Adobe Illustrator 19.0.0, SVG Export Plug-In . SVG Version: 6.00 Build 0)  -->
<svg version="1.1" id="Layer_1" xmlns="http://www.w3.org/2000/svg" xmlns:xlink="http://www.w3.org/1999/xlink" x="0px" y="0px"
	 viewBox="0 0 300 300" style="enable-background:new 0 0 300 300;" xml:space="preserve">
<style type="text/css">
	.st0{fill:#FFFFFF;}
	.st1{opacity:0.69;}
</style>
<g id="XMLID_14249_">
	<g id="XMLID_17100_">
		<path id="XMLID_17115_" class="st0" d="M34.6,257.3h-6.5l17.8-41.5h0.4l17.9,41.5h-6.8l-2.3-5.7c0,0-18.1,0-18.2,0L34.6,257.3z
			 M46,229.8l-6.8,16.1h13.4C52.8,245.9,46,229.8,46,229.8z"/>
		<path id="XMLID_17113_" class="st0" d="M70.8,242.9v-26.3h6.4v26c0,6.5,3.2,9.5,9.2,9.5c5.9,0,9.1-2.9,9.1-9.5v-26h6.4v26.3
			c0,9.9-6.7,14.9-15.5,14.9C77.5,257.8,70.8,252.9,70.8,242.9z"/>
		<path id="XMLID_17110_" class="st0" d="M141.4,257.3h-7.6l-6.9-9.9c-0.9,0.1-1.9,0.2-2.9,0.2h-4v9.7h-6.4v-40.7h10.4
			c11.2,0,17.4,6.2,17.4,15.6c0,6.3-2.8,11.1-8.1,13.6L141.4,257.3z M123.7,242.1c7.8,0,11-3.7,11-9.9c0-6.2-3.2-9.9-11-9.9h-3.8
			v19.8H123.7z"/>
		<path id="XMLID_17107_" class="st0" d="M149.6,236.9c0-12,9.3-20.9,21-20.9c11.7,0,21,8.9,21,20.9c0,12-9.3,20.9-21,20.9
			C158.9,257.8,149.6,249,149.6,236.9z M185,236.9c0-8.6-5.9-15.1-14.4-15.1s-14.4,6.5-14.4,15.1c0,8.6,5.9,15.1,14.4,15.1
			S185,245.5,185,236.9z"/>
		<path id="XMLID_17104_" class="st0" d="M229.4,257.3h-7.6l-6.9-9.9c-0.9,0.1-1.9,0.2-2.9,0.2h-4v9.7h-6.4v-40.7h10.4
			c11.2,0,17.4,6.2,17.4,15.6c0,6.3-2.8,11.1-8.1,13.6L229.4,257.3z M211.7,242.1c7.8,0,11-3.7,11-9.9c0-6.2-3.2-9.9-11-9.9h-3.8
			v19.8H211.7z"/>
		<path id="XMLID_17101_" class="st0" d="M242.3,257.3h-6.5l17.8-41.5h0.4l17.9,41.5h-6.8l-2.3-5.7c0,0-18.1,0-18.2,0L242.3,257.3z
			 M253.8,229.8l-6.8,16.1h13.4C260.5,245.9,253.8,229.8,253.8,229.8z"/>
	</g>
	<g id="XMLID_17078_">
		<path id="XMLID_17096_" class="st0" d="M31.5,267.9h7.8c4.5,0,6.7,2.6,6.7,5.9c0,2.3-1.1,3.9-3.1,4.8c3,0.8,5,3.1,5,6.3
			c0,3.9-2.5,7-7.7,7h-8.7V267.9z M39.5,277.8c3,0,4.2-1.7,4.2-4c0-2.2-1.3-3.9-4.6-3.9h-5.4v7.9H39.5z M40,289.8c4,0,5.6-2.1,5.6-5
			c0-2.9-1.8-5.1-5.7-5.1h-6.2v10.1H40z"/>
		<path id="XMLID_17093_" class="st0" d="M63,279.8c0-7.1,5.5-12.3,12.3-12.3c6.8,0,12.3,5.2,12.3,12.3c0,7.1-5.5,12.3-12.3,12.3
			C68.5,292.1,63,286.9,63,279.8z M85.2,279.8c0-5.8-4.2-10.2-9.9-10.2c-5.7,0-9.9,4.4-9.9,10.2c0,5.8,4.2,10.2,9.9,10.2
			C81,290,85.2,285.6,85.2,279.8z"/>
		<path id="XMLID_17090_" class="st0" d="M119.2,291.8h-2.8l-4.8-6.1c-0.6,0.1-1.3,0.1-2,0.1h-2.9v6h-2.3v-23.9h5.2
			c6.5,0,9.9,3.8,9.9,9c0,3.8-1.9,7-5.6,8.3L119.2,291.8z M109.6,283.8c5.5,0,7.6-2.9,7.6-6.9c0-4-2.2-7-7.6-7h-2.8v13.9H109.6z"/>
		<path id="XMLID_17088_" class="st0" d="M136.9,267.9h14.4v2h-12.1v12H150v2h-10.8v5.9h12.6v2h-14.9V267.9z"/>
		<path id="XMLID_17085_" class="st0" d="M169.3,291.8H167l10.1-24.5h0.2l10.1,24.5H185l-1.7-4.2H171L169.3,291.8z M177.2,272.3
			l-5.4,13.3h10.7C182.5,285.6,177.2,272.3,177.2,272.3z"/>
		<path id="XMLID_17083_" class="st0" d="M203.8,267.9h2.3v21.9h11.1v2h-13.4V267.9z"/>
		<path id="XMLID_17081_" class="st0" d="M234,267.9h2.3v23.9H234V267.9z"/>
		<path id="XMLID_17079_" class="st0" d="M254.8,286.2c1.3,2.4,3.5,3.8,6.3,3.8c3.3,0,5.2-1.6,5.2-4.1c0-2.6-1.6-3.8-4.5-5.2
			l-1.9-0.9c-3.5-1.6-5.5-3.2-5.5-6.5c0-3.4,2.6-5.7,6.2-5.7c3,0,5.1,1.1,6.6,3.5l-1.8,1.1c-1.1-1.8-2.6-2.6-4.8-2.6
			c-2.4,0-3.9,1.5-3.9,3.6c0,2.3,1.3,3.1,4.2,4.5l1.9,0.9c3.8,1.8,5.8,3.6,5.8,7.2c0,3.9-3,6.3-7.5,6.3c-3.9,0-6.7-1.9-8.2-4.8
			L254.8,286.2z"/>
	</g>
	<g id="XMLID_14250_">
		<g id="XMLID_17057_">
			<path id="XMLID_17077_" class="st0" d="M46.6,178.7c0,0,0.2,2,0.5,4.9c0.3,2.9,0.5,6.9,0.8,10.8c0.1,2,0.4,3.9,0.4,5.8
				c0,1.8-0.2,3.6-0.4,5c-0.5,2.9-1.3,4.9-1.3,4.9c-0.1,0.1-0.2,0.2-0.3,0.1c0,0-0.1-0.1-0.1-0.1c0,0-0.8-2-1.3-4.9
				c-0.3-1.5-0.4-3.2-0.4-5c0-1.8,0.3-3.8,0.4-5.8c0.3-3.9,0.5-7.9,0.8-10.8c0.3-2.9,0.5-4.9,0.5-4.9c0-0.1,0.1-0.2,0.2-0.2
				C46.5,178.5,46.6,178.6,46.6,178.7z"/>
			<path id="XMLID_17076_" class="st0" d="M61.4,154.3c0,0,0.2,2.8,0.5,7c0.3,4.2,0.5,9.8,0.8,15.3c0.1,2.8,0.4,5.6,0.4,8.2
				c0,2.6-0.2,5-0.4,7.1c-0.5,4.2-1.3,7-1.3,7c0,0.1-0.2,0.2-0.3,0.1c-0.1,0-0.1-0.1-0.1-0.1c0,0-0.8-2.8-1.3-7
				c-0.3-2.1-0.4-4.5-0.4-7.1c0-2.6,0.3-5.4,0.4-8.2c0.3-5.6,0.5-11.1,0.8-15.3c0.3-4.2,0.5-7,0.5-7c0-0.1,0.1-0.2,0.2-0.2
				C61.3,154.1,61.4,154.2,61.4,154.3z"/>
			<path id="XMLID_17075_" class="st0" d="M76.2,129.9c0,0,0.2,3.8,0.5,9.5c0.3,5.7,0.5,13.2,0.8,20.8c0.1,3.8,0.4,7.6,0.4,11.1
				c0,3.5-0.2,6.9-0.4,9.7c-0.5,5.7-1.3,9.5-1.3,9.5c0,0.1-0.1,0.2-0.2,0.2c-0.1,0-0.1-0.1-0.1-0.2c0,0-0.8-3.8-1.3-9.5
				c-0.3-2.8-0.4-6.1-0.4-9.7c0-3.5,0.3-7.3,0.4-11.1c0.3-7.6,0.5-15.1,0.8-20.8c0.3-5.7,0.5-9.5,0.5-9.5c0-0.1,0.1-0.2,0.2-0.2
				C76.1,129.6,76.2,129.7,76.2,129.9z"/>
			<path id="XMLID_17074_" class="st0" d="M91,105.4c0,0,0.2,4.9,0.5,12.3c0.3,7.4,0.5,17.2,0.8,27.1c0.1,4.9,0.4,9.8,0.4,14.4
				c0,4.6-0.2,8.9-0.4,12.6c-0.5,7.4-1.3,12.3-1.3,12.3c0,0.1-0.1,0.2-0.2,0.2c-0.1,0-0.1-0.1-0.1-0.2c0,0-0.8-4.9-1.3-12.3
				c-0.3-3.7-0.4-8-0.4-12.6c0-4.6,0.3-9.5,0.4-14.4c0.3-9.8,0.5-19.7,0.8-27.1c0.3-7.4,0.5-12.3,0.5-12.3c0-0.1,0.1-0.2,0.2-0.2
				C90.9,105.2,91,105.3,91,105.4z"/>
			<path id="XMLID_17073_" class="st0" d="M105.8,81c0,0,0.2,6.2,0.5,15.4c0.3,9.2,0.5,21.6,0.8,33.9c0.1,6.2,0.4,12.3,0.4,18.1
				c0,5.8-0.2,11.2-0.4,15.8c-0.5,9.2-1.3,15.4-1.3,15.4c0,0.1-0.1,0.2-0.2,0.2c-0.1,0-0.1-0.1-0.2-0.2c0,0-0.8-6.2-1.3-15.4
				c-0.3-4.6-0.4-10-0.4-15.8c0.1-5.8,0.3-11.9,0.4-18.1c0.3-12.3,0.5-24.6,0.8-33.9c0.3-9.2,0.5-15.4,0.5-15.4
				c0-0.1,0.1-0.2,0.2-0.2C105.7,80.8,105.8,80.9,105.8,81z"/>
			<path id="XMLID_17072_" class="st0" d="M120.6,148.1c0,0,0.8,7.1,1.3,14.2c0.1,1.8,0.4,3.6,0.4,5.2c0,1.7-0.2,3.2-0.4,4.5
				c-0.5,2.7-1.3,4.4-1.3,4.4c-0.1,0.1-0.2,0.2-0.3,0.1c0,0-0.1-0.1-0.1-0.1c0,0-0.8-1.8-1.3-4.4c-0.3-1.3-0.4-2.9-0.4-4.5
				c0-1.7,0.3-3.4,0.4-5.2c0.5-7.1,1.3-14.2,1.3-14.2c0-0.1,0.1-0.2,0.2-0.2C120.5,147.9,120.6,148,120.6,148.1z"/>
			<path id="XMLID_17071_" class="st0" d="M120.6,56.6c0,0,0.2,4.2,0.5,10.4c0.3,6.3,0.5,14.6,0.8,22.9c0.1,4.2,0.4,8.3,0.4,12.3
				c0,3.9-0.2,7.6-0.4,10.7c-0.5,6.3-1.3,10.4-1.3,10.4c0,0.1-0.1,0.2-0.2,0.2c-0.1,0-0.1-0.1-0.1-0.2c0,0-0.8-4.2-1.3-10.4
				c-0.3-3.1-0.4-6.8-0.4-10.7c0-3.9,0.3-8.1,0.4-12.3c0.3-8.3,0.5-16.7,0.8-22.9c0.3-6.3,0.5-10.4,0.5-10.4c0-0.1,0.1-0.2,0.2-0.2
				C120.5,56.4,120.6,56.5,120.6,56.6z"/>
			<path id="XMLID_17070_" class="st0" d="M135.4,32.2c0,0,0.2,4.1,0.5,10.3c0.3,6.2,0.5,14.5,0.8,22.8c0.1,4.1,0.4,8.3,0.4,12.2
				c0,3.9-0.2,7.5-0.4,10.6c-0.5,6.2-1.3,10.3-1.3,10.3c0,0.1-0.1,0.2-0.2,0.2c-0.1,0-0.1-0.1-0.1-0.2c0,0-0.8-4.1-1.3-10.3
				c-0.3-3.1-0.4-6.7-0.4-10.6c0-3.9,0.3-8,0.4-12.2c0.3-8.3,0.5-16.6,0.8-22.8c0.3-6.2,0.5-10.3,0.5-10.3c0-0.1,0.1-0.2,0.2-0.2
				C135.3,32,135.4,32,135.4,32.2z"/>
			<path id="XMLID_17069_" class="st0" d="M135.4,148.1c0,0,0.8,6.7,1.3,13.3c0.1,1.7,0.4,3.3,0.4,4.9c0,1.6-0.2,3-0.4,4.3
				c-0.5,2.5-1.3,4.2-1.3,4.2c-0.1,0.1-0.2,0.2-0.3,0.1c0,0-0.1-0.1-0.1-0.1c0,0-0.8-1.7-1.3-4.2c-0.3-1.2-0.4-2.7-0.4-4.3
				c0-1.6,0.3-3.2,0.4-4.9c0.5-6.7,1.3-13.3,1.3-13.3c0-0.1,0.1-0.2,0.2-0.2C135.3,147.9,135.4,148,135.4,148.1z"/>
			<path id="XMLID_17068_" class="st0" d="M150.2,10c0,0,0.2,4.1,0.5,10.2c0.3,6.1,0.5,14.3,0.8,22.5c0.1,4.1,0.4,8.2,0.4,12
				c0,3.8-0.2,7.4-0.4,10.5c-0.5,6.1-1.3,10.2-1.3,10.2c0,0.1-0.1,0.2-0.2,0.2c-0.1,0-0.1-0.1-0.1-0.2c0,0-0.8-4.1-1.3-10.2
				c-0.3-3.1-0.4-6.6-0.4-10.5c0-3.8,0.3-7.9,0.4-12c0.3-8.2,0.5-16.3,0.8-22.5c0.3-6.1,0.5-10.2,0.5-10.2c0-0.1,0.1-0.2,0.2-0.2
				C150.1,9.8,150.2,9.8,150.2,10z"/>
			<path id="XMLID_17067_" class="st0" d="M150.2,148.1c0,0,0.8,6.5,1.3,13c0.1,1.6,0.4,3.3,0.4,4.8c0,1.5-0.2,2.9-0.4,4.2
				c-0.5,2.4-1.3,4.1-1.3,4.1c-0.1,0.1-0.2,0.2-0.3,0.1c0,0-0.1-0.1-0.1-0.1c0,0-0.8-1.6-1.3-4.1c-0.3-1.2-0.4-2.6-0.4-4.2
				c0-1.5,0.3-3.2,0.4-4.8c0.5-6.5,1.3-13,1.3-13c0-0.1,0.1-0.2,0.2-0.2C150.1,147.9,150.2,148,150.2,148.1z"/>
			<path id="XMLID_17066_" class="st0" d="M164.6,174.7c0,0-0.8-1.7-1.3-4.2c-0.3-1.2-0.4-2.7-0.4-4.3c0-1.6,0.3-3.2,0.4-4.9
				c0.5-6.7,1.3-13.3,1.3-13.3c0-0.1,0.1-0.2,0.2-0.2c0.1,0,0.1,0.1,0.2,0.2c0,0,0.8,6.7,1.3,13.3c0.1,1.7,0.4,3.3,0.4,4.9
				c0,1.6-0.2,3-0.4,4.3c-0.5,2.5-1.3,4.2-1.3,4.2C164.9,174.9,164.8,174.9,164.6,174.7C164.7,174.8,164.6,174.8,164.6,174.7z"/>
			<path id="XMLID_17065_" class="st0" d="M165,32.7c0,0,0.2,4.2,0.5,10.6c0.3,6.4,0.5,14.8,0.8,23.3c0.1,4.2,0.4,8.5,0.4,12.5
				c0,4-0.2,7.7-0.4,10.9c-0.5,6.4-1.3,10.6-1.3,10.6c0,0.1-0.1,0.2-0.2,0.2c-0.1,0-0.1-0.1-0.1-0.2c0,0-0.8-4.2-1.3-10.6
				c-0.3-3.2-0.4-6.9-0.4-10.9c0-4,0.3-8.2,0.4-12.5c0.3-8.5,0.5-17,0.8-23.3c0.3-6.4,0.5-10.6,0.5-10.6c0-0.1,0.1-0.2,0.2-0.2
				C164.9,32.5,165,32.6,165,32.7z"/>
			<path id="XMLID_17064_" class="st0" d="M179.8,57c0,0,0.2,4.3,0.5,10.8c0.3,6.5,0.5,15.1,0.8,23.7c0.1,4.3,0.4,8.6,0.4,12.6
				c0,4-0.2,7.8-0.4,11c-0.5,6.5-1.3,10.8-1.3,10.8c0,0.1-0.1,0.2-0.2,0.2c-0.1,0-0.1-0.1-0.1-0.2c0,0-0.8-4.3-1.3-10.8
				c-0.3-3.2-0.4-7-0.4-11c0-4,0.3-8.3,0.4-12.6c0.3-8.6,0.5-17.2,0.8-23.7c0.3-6.5,0.5-10.8,0.5-10.8c0-0.1,0.1-0.2,0.2-0.2
				C179.7,56.8,179.8,56.9,179.8,57z"/>
			<path id="XMLID_17063_" class="st0" d="M179.4,176.3c0,0-0.8-1.8-1.3-4.4c-0.3-1.3-0.4-2.9-0.4-4.5c0-1.6,0.3-3.4,0.4-5.2
				c0.5-7,1.3-14.1,1.3-14.1c0-0.1,0.1-0.2,0.2-0.2c0.1,0,0.1,0.1,0.2,0.2c0,0,0.8,7,1.3,14.1c0.1,1.8,0.4,3.5,0.4,5.2
				c0,1.6-0.2,3.2-0.4,4.5c-0.5,2.6-1.3,4.4-1.3,4.4C179.7,176.4,179.6,176.4,179.4,176.3C179.5,176.3,179.4,176.3,179.4,176.3z"/>
			<path id="XMLID_17062_" class="st0" d="M194.6,81.4c0,0,0.2,6.1,0.5,15.3c0.3,9.2,0.5,21.5,0.8,33.8c0.1,6.1,0.4,12.3,0.4,18
				c0,5.8-0.2,11.1-0.4,15.7c-0.5,9.2-1.3,15.3-1.3,15.3c0,0.1-0.1,0.2-0.2,0.2c-0.1,0-0.1-0.1-0.2-0.2c0,0-0.8-6.1-1.3-15.3
				c-0.3-4.6-0.4-10-0.4-15.7c0.1-5.8,0.3-11.9,0.4-18c0.3-12.3,0.5-24.6,0.8-33.8c0.3-9.2,0.5-15.3,0.5-15.3c0-0.1,0.1-0.2,0.2-0.2
				C194.5,81.2,194.6,81.3,194.6,81.4z"/>
			<path id="XMLID_17061_" class="st0" d="M209.4,105.7c0,0,0.2,4.9,0.5,12.3c0.3,7.4,0.5,17.2,0.8,27c0.1,4.9,0.4,9.8,0.4,14.4
				c0,4.6-0.2,8.9-0.4,12.6c-0.5,7.4-1.3,12.3-1.3,12.3c0,0.1-0.1,0.2-0.2,0.2c-0.1,0-0.1-0.1-0.1-0.2c0,0-0.8-4.9-1.3-12.3
				c-0.3-3.7-0.4-8-0.4-12.6c0-4.6,0.3-9.5,0.4-14.4c0.3-9.8,0.5-19.6,0.8-27c0.3-7.4,0.5-12.3,0.5-12.3c0-0.1,0.1-0.2,0.2-0.2
				C209.3,105.5,209.4,105.6,209.4,105.7z"/>
			<path id="XMLID_17060_" class="st0" d="M224.2,130.1c0,0,0.2,3.8,0.5,9.4c0.3,5.7,0.5,13.2,0.8,20.7c0.1,3.8,0.4,7.5,0.4,11.1
				c0,3.5-0.2,6.8-0.4,9.7c-0.5,5.7-1.3,9.4-1.3,9.4c0,0.1-0.1,0.2-0.2,0.2c-0.1,0-0.1-0.1-0.1-0.2c0,0-0.8-3.8-1.3-9.4
				c-0.3-2.8-0.4-6.1-0.4-9.7c0-3.5,0.3-7.3,0.4-11.1c0.3-7.5,0.5-15.1,0.8-20.7c0.3-5.7,0.5-9.4,0.5-9.4c0-0.1,0.1-0.2,0.2-0.2
				C224.1,129.9,224.2,130,224.2,130.1z"/>
			<path id="XMLID_17059_" class="st0" d="M239,154.4c0,0,0.2,2.8,0.5,6.9c0.3,4.2,0.5,9.7,0.8,15.3c0.1,2.8,0.4,5.6,0.4,8.2
				c0,2.6-0.2,5-0.4,7.1c-0.5,4.2-1.3,6.9-1.3,6.9c0,0.1-0.2,0.2-0.3,0.1c-0.1,0-0.1-0.1-0.1-0.1c0,0-0.8-2.8-1.3-6.9
				c-0.3-2.1-0.4-4.5-0.4-7.1c0-2.6,0.3-5.4,0.4-8.2c0.3-5.6,0.5-11.1,0.8-15.3c0.3-4.2,0.5-6.9,0.5-6.9c0-0.1,0.1-0.2,0.2-0.2
				C238.9,154.2,239,154.3,239,154.4z"/>
			<path id="XMLID_17058_" class="st0" d="M253.8,178.8c0,0,0.2,2,0.5,4.9c0.3,2.9,0.5,6.9,0.8,10.8c0.1,2,0.4,3.9,0.4,5.8
				c0,1.8-0.2,3.6-0.4,5c-0.5,2.9-1.3,4.9-1.3,4.9c-0.1,0.1-0.2,0.2-0.3,0.1c0,0-0.1-0.1-0.1-0.1c0,0-0.8-2-1.3-4.9
				c-0.3-1.5-0.4-3.2-0.4-5c0-1.8,0.3-3.8,0.4-5.8c0.3-3.9,0.5-7.9,0.8-10.8c0.3-2.9,0.5-4.9,0.5-4.9c0-0.1,0.1-0.2,0.2-0.2
				C253.7,178.6,253.8,178.7,253.8,178.8z"/>
		</g>
		<g id="XMLID_14252_" class="st1">
			<path id="XMLID_17056_" class="st0" d="M46.6,178.7c0,0,0.2,2,0.5,4.9c0.3,2.9,0.5,6.9,0.8,10.8c0.1,2,0.4,3.9,0.4,5.8
				c0,1.8-0.2,3.6-0.4,5c-0.5,2.9-1.3,4.9-1.3,4.9c-0.1,0.1-0.2,0.2-0.3,0.1c0,0-0.1-0.1-0.1-0.1c0,0-0.8-2-1.3-4.9
				c-0.3-1.5-0.4-3.2-0.4-5c0-1.8,0.3-3.8,0.4-5.8c0.3-3.9,0.5-7.9,0.8-10.8c0.3-2.9,0.5-4.9,0.5-4.9c0-0.1,0.1-0.2,0.2-0.2
				C46.5,178.5,46.6,178.6,46.6,178.7z"/>
			<path id="XMLID_17055_" class="st0" d="M61.4,154.3c0,0,0.2,2.8,0.5,7c0.3,4.2,0.5,9.8,0.8,15.3c0.1,2.8,0.4,5.6,0.4,8.2
				c0,2.6-0.2,5-0.4,7.1c-0.5,4.2-1.3,7-1.3,7c0,0.1-0.2,0.2-0.3,0.1c-0.1,0-0.1-0.1-0.1-0.1c0,0-0.8-2.8-1.3-7
				c-0.3-2.1-0.4-4.5-0.4-7.1c0-2.6,0.3-5.4,0.4-8.2c0.3-5.6,0.5-11.1,0.8-15.3c0.3-4.2,0.5-7,0.5-7c0-0.1,0.1-0.2,0.2-0.2
				C61.3,154.1,61.4,154.2,61.4,154.3z"/>
			<path id="XMLID_17054_" class="st0" d="M76.2,129.9c0,0,0.2,3.8,0.5,9.5c0.3,5.7,0.5,13.2,0.8,20.8c0.1,3.8,0.4,7.6,0.4,11.1
				c0,3.5-0.2,6.9-0.4,9.7c-0.5,5.7-1.3,9.5-1.3,9.5c0,0.1-0.1,0.2-0.2,0.2c-0.1,0-0.1-0.1-0.1-0.2c0,0-0.8-3.8-1.3-9.5
				c-0.3-2.8-0.4-6.1-0.4-9.7c0-3.5,0.3-7.3,0.4-11.1c0.3-7.6,0.5-15.1,0.8-20.8c0.3-5.7,0.5-9.5,0.5-9.5c0-0.1,0.1-0.2,0.2-0.2
				C76.1,129.6,76.2,129.7,76.2,129.9z"/>
			<path id="XMLID_17053_" class="st0" d="M91,105.4c0,0,0.2,4.9,0.5,12.3c0.3,7.4,0.5,17.2,0.8,27.1c0.1,4.9,0.4,9.8,0.4,14.4
				c0,4.6-0.2,8.9-0.4,12.6c-0.5,7.4-1.3,12.3-1.3,12.3c0,0.1-0.1,0.2-0.2,0.2c-0.1,0-0.1-0.1-0.1-0.2c0,0-0.8-4.9-1.3-12.3
				c-0.3-3.7-0.4-8-0.4-12.6c0-4.6,0.3-9.5,0.4-14.4c0.3-9.8,0.5-19.7,0.8-27.1c0.3-7.4,0.5-12.3,0.5-12.3c0-0.1,0.1-0.2,0.2-0.2
				C90.9,105.2,91,105.3,91,105.4z"/>
			<path id="XMLID_17052_" class="st0" d="M105.8,81c0,0,0.2,6.2,0.5,15.4c0.3,9.2,0.5,21.6,0.8,33.9c0.1,6.2,0.4,12.3,0.4,18.1
				c0,5.8-0.2,11.2-0.4,15.8c-0.5,9.2-1.3,15.4-1.3,15.4c0,0.1-0.1,0.2-0.2,0.2c-0.1,0-0.1-0.1-0.2-0.2c0,0-0.8-6.2-1.3-15.4
				c-0.3-4.6-0.4-10-0.4-15.8c0.1-5.8,0.3-11.9,0.4-18.1c0.3-12.3,0.5-24.6,0.8-33.9c0.3-9.2,0.5-15.4,0.5-15.4
				c0-0.1,0.1-0.2,0.2-0.2C105.7,80.8,105.8,80.9,105.8,81z"/>
			<path id="XMLID_17051_" class="st0" d="M120.6,148.1c0,0,0.8,7.1,1.3,14.2c0.1,1.8,0.4,3.6,0.4,5.2c0,1.7-0.2,3.2-0.4,4.5
				c-0.5,2.7-1.3,4.4-1.3,4.4c-0.1,0.1-0.2,0.2-0.3,0.1c0,0-0.1-0.1-0.1-0.1c0,0-0.8-1.8-1.3-4.4c-0.3-1.3-0.4-2.9-0.4-4.5
				c0-1.7,0.3-3.4,0.4-5.2c0.5-7.1,1.3-14.2,1.3-14.2c0-0.1,0.1-0.2,0.2-0.2C120.5,147.9,120.6,148,120.6,148.1z"/>
			<path id="XMLID_17050_" class="st0" d="M120.6,56.6c0,0,0.2,4.2,0.5,10.4c0.3,6.3,0.5,14.6,0.8,22.9c0.1,4.2,0.4,8.3,0.4,12.3
				c0,3.9-0.2,7.6-0.4,10.7c-0.5,6.3-1.3,10.4-1.3,10.4c0,0.1-0.1,0.2-0.2,0.2c-0.1,0-0.1-0.1-0.1-0.2c0,0-0.8-4.2-1.3-10.4
				c-0.3-3.1-0.4-6.8-0.4-10.7c0-3.9,0.3-8.1,0.4-12.3c0.3-8.3,0.5-16.7,0.8-22.9c0.3-6.3,0.5-10.4,0.5-10.4c0-0.1,0.1-0.2,0.2-0.2
				C120.5,56.4,120.6,56.5,120.6,56.6z"/>
			<path id="XMLID_17049_" class="st0" d="M135.4,32.2c0,0,0.2,4.1,0.5,10.3c0.3,6.2,0.5,14.5,0.8,22.8c0.1,4.1,0.4,8.3,0.4,12.2
				c0,3.9-0.2,7.5-0.4,10.6c-0.5,6.2-1.3,10.3-1.3,10.3c0,0.1-0.1,0.2-0.2,0.2c-0.1,0-0.1-0.1-0.1-0.2c0,0-0.8-4.1-1.3-10.3
				c-0.3-3.1-0.4-6.7-0.4-10.6c0-3.9,0.3-8,0.4-12.2c0.3-8.3,0.5-16.6,0.8-22.8c0.3-6.2,0.5-10.3,0.5-10.3c0-0.1,0.1-0.2,0.2-0.2
				C135.3,32,135.4,32,135.4,32.2z"/>
			<path id="XMLID_17048_" class="st0" d="M135.4,148.1c0,0,0.8,6.7,1.3,13.3c0.1,1.7,0.4,3.3,0.4,4.9c0,1.6-0.2,3-0.4,4.3
				c-0.5,2.5-1.3,4.2-1.3,4.2c-0.1,0.1-0.2,0.2-0.3,0.1c0,0-0.1-0.1-0.1-0.1c0,0-0.8-1.7-1.3-4.2c-0.3-1.2-0.4-2.7-0.4-4.3
				c0-1.6,0.3-3.2,0.4-4.9c0.5-6.7,1.3-13.3,1.3-13.3c0-0.1,0.1-0.2,0.2-0.2C135.3,147.9,135.4,148,135.4,148.1z"/>
			<path id="XMLID_17047_" class="st0" d="M150.2,10c0,0,0.2,4.1,0.5,10.2c0.3,6.1,0.5,14.3,0.8,22.5c0.1,4.1,0.4,8.2,0.4,12
				c0,3.8-0.2,7.4-0.4,10.5c-0.5,6.1-1.3,10.2-1.3,10.2c0,0.1-0.1,0.2-0.2,0.2c-0.1,0-0.1-0.1-0.1-0.2c0,0-0.8-4.1-1.3-10.2
				c-0.3-3.1-0.4-6.6-0.4-10.5c0-3.8,0.3-7.9,0.4-12c0.3-8.2,0.5-16.3,0.8-22.5c0.3-6.1,0.5-10.2,0.5-10.2c0-0.1,0.1-0.2,0.2-0.2
				C150.1,9.8,150.2,9.8,150.2,10z"/>
			<path id="XMLID_17046_" class="st0" d="M150.2,148.1c0,0,0.8,6.5,1.3,13c0.1,1.6,0.4,3.3,0.4,4.8c0,1.5-0.2,2.9-0.4,4.2
				c-0.5,2.4-1.3,4.1-1.3,4.1c-0.1,0.1-0.2,0.2-0.3,0.1c0,0-0.1-0.1-0.1-0.1c0,0-0.8-1.6-1.3-4.1c-0.3-1.2-0.4-2.6-0.4-4.2
				c0-1.5,0.3-3.2,0.4-4.8c0.5-6.5,1.3-13,1.3-13c0-0.1,0.1-0.2,0.2-0.2C150.1,147.9,150.2,148,150.2,148.1z"/>
			<path id="XMLID_17042_" class="st0" d="M164.6,174.7c0,0-0.8-1.7-1.3-4.2c-0.3-1.2-0.4-2.7-0.4-4.3c0-1.6,0.3-3.2,0.4-4.9
				c0.5-6.7,1.3-13.3,1.3-13.3c0-0.1,0.1-0.2,0.2-0.2c0.1,0,0.1,0.1,0.2,0.2c0,0,0.8,6.7,1.3,13.3c0.1,1.7,0.4,3.3,0.4,4.9
				c0,1.6-0.2,3-0.4,4.3c-0.5,2.5-1.3,4.2-1.3,4.2C164.9,174.9,164.8,174.9,164.6,174.7C164.7,174.8,164.6,174.8,164.6,174.7z"/>
			<path id="XMLID_17041_" class="st0" d="M165,32.7c0,0,0.2,4.2,0.5,10.6c0.3,6.4,0.5,14.8,0.8,23.3c0.1,4.2,0.4,8.5,0.4,12.5
				c0,4-0.2,7.7-0.4,10.9c-0.5,6.4-1.3,10.6-1.3,10.6c0,0.1-0.1,0.2-0.2,0.2c-0.1,0-0.1-0.1-0.1-0.2c0,0-0.8-4.2-1.3-10.6
				c-0.3-3.2-0.4-6.9-0.4-10.9c0-4,0.3-8.2,0.4-12.5c0.3-8.5,0.5-17,0.8-23.3c0.3-6.4,0.5-10.6,0.5-10.6c0-0.1,0.1-0.2,0.2-0.2
				C164.9,32.5,165,32.6,165,32.7z"/>
			<path id="XMLID_16893_" class="st0" d="M179.8,57c0,0,0.2,4.3,0.5,10.8c0.3,6.5,0.5,15.1,0.8,23.7c0.1,4.3,0.4,8.6,0.4,12.6
				c0,4-0.2,7.8-0.4,11c-0.5,6.5-1.3,10.8-1.3,10.8c0,0.1-0.1,0.2-0.2,0.2c-0.1,0-0.1-0.1-0.1-0.2c0,0-0.8-4.3-1.3-10.8
				c-0.3-3.2-0.4-7-0.4-11c0-4,0.3-8.3,0.4-12.6c0.3-8.6,0.5-17.2,0.8-23.7c0.3-6.5,0.5-10.8,0.5-10.8c0-0.1,0.1-0.2,0.2-0.2
				C179.7,56.8,179.8,56.9,179.8,57z"/>
			<path id="XMLID_16891_" class="st0" d="M179.4,176.3c0,0-0.8-1.8-1.3-4.4c-0.3-1.3-0.4-2.9-0.4-4.5c0-1.6,0.3-3.4,0.4-5.2
				c0.5-7,1.3-14.1,1.3-14.1c0-0.1,0.1-0.2,0.2-0.2c0.1,0,0.1,0.1,0.2,0.2c0,0,0.8,7,1.3,14.1c0.1,1.8,0.4,3.5,0.4,5.2
				c0,1.6-0.2,3.2-0.4,4.5c-0.5,2.6-1.3,4.4-1.3,4.4C179.7,176.4,179.6,176.4,179.4,176.3C179.5,176.3,179.4,176.3,179.4,176.3z"/>
			<path id="XMLID_16890_" class="st0" d="M194.6,81.4c0,0,0.2,6.1,0.5,15.3c0.3,9.2,0.5,21.5,0.8,33.8c0.1,6.1,0.4,12.3,0.4,18
				c0,5.8-0.2,11.1-0.4,15.7c-0.5,9.2-1.3,15.3-1.3,15.3c0,0.1-0.1,0.2-0.2,0.2c-0.1,0-0.1-0.1-0.2-0.2c0,0-0.8-6.1-1.3-15.3
				c-0.3-4.6-0.4-10-0.4-15.7c0.1-5.8,0.3-11.9,0.4-18c0.3-12.3,0.5-24.6,0.8-33.8c0.3-9.2,0.5-15.3,0.5-15.3c0-0.1,0.1-0.2,0.2-0.2
				C194.5,81.2,194.6,81.3,194.6,81.4z"/>
			<path id="XMLID_16889_" class="st0" d="M209.4,105.7c0,0,0.2,4.9,0.5,12.3c0.3,7.4,0.5,17.2,0.8,27c0.1,4.9,0.4,9.8,0.4,14.4
				c0,4.6-0.2,8.9-0.4,12.6c-0.5,7.4-1.3,12.3-1.3,12.3c0,0.1-0.1,0.2-0.2,0.2c-0.1,0-0.1-0.1-0.1-0.2c0,0-0.8-4.9-1.3-12.3
				c-0.3-3.7-0.4-8-0.4-12.6c0-4.6,0.3-9.5,0.4-14.4c0.3-9.8,0.5-19.6,0.8-27c0.3-7.4,0.5-12.3,0.5-12.3c0-0.1,0.1-0.2,0.2-0.2
				C209.3,105.5,209.4,105.6,209.4,105.7z"/>
			<path id="XMLID_16886_" class="st0" d="M224.2,130.1c0,0,0.2,3.8,0.5,9.4c0.3,5.7,0.5,13.2,0.8,20.7c0.1,3.8,0.4,7.5,0.4,11.1
				c0,3.5-0.2,6.8-0.4,9.7c-0.5,5.7-1.3,9.4-1.3,9.4c0,0.1-0.1,0.2-0.2,0.2c-0.1,0-0.1-0.1-0.1-0.2c0,0-0.8-3.8-1.3-9.4
				c-0.3-2.8-0.4-6.1-0.4-9.7c0-3.5,0.3-7.3,0.4-11.1c0.3-7.5,0.5-15.1,0.8-20.7c0.3-5.7,0.5-9.4,0.5-9.4c0-0.1,0.1-0.2,0.2-0.2
				C224.1,129.9,224.2,130,224.2,130.1z"/>
			<path id="XMLID_14255_" class="st0" d="M239,154.4c0,0,0.2,2.8,0.5,6.9c0.3,4.2,0.5,9.7,0.8,15.3c0.1,2.8,0.4,5.6,0.4,8.2
				c0,2.6-0.2,5-0.4,7.1c-0.5,4.2-1.3,6.9-1.3,6.9c0,0.1-0.2,0.2-0.3,0.1c-0.1,0-0.1-0.1-0.1-0.1c0,0-0.8-2.8-1.3-6.9
				c-0.3-2.1-0.4-4.5-0.4-7.1c0-2.6,0.3-5.4,0.4-8.2c0.3-5.6,0.5-11.1,0.8-15.3c0.3-4.2,0.5-6.9,0.5-6.9c0-0.1,0.1-0.2,0.2-0.2
				C238.9,154.2,239,154.3,239,154.4z"/>
			<path id="XMLID_14253_" class="st0" d="M253.8,178.8c0,0,0.2,2,0.5,4.9c0.3,2.9,0.5,6.9,0.8,10.8c0.1,2,0.4,3.9,0.4,5.8
				c0,1.8-0.2,3.6-0.4,5c-0.5,2.9-1.3,4.9-1.3,4.9c-0.1,0.1-0.2,0.2-0.3,0.1c0,0-0.1-0.1-0.1-0.1c0,0-0.8-2-1.3-4.9
				c-0.3-1.5-0.4-3.2-0.4-5c0-1.8,0.3-3.8,0.4-5.8c0.3-3.9,0.5-7.9,0.8-10.8c0.3-2.9,0.5-4.9,0.5-4.9c0-0.1,0.1-0.2,0.2-0.2
				C253.7,178.6,253.8,178.7,253.8,178.8z"/>
		</g>
	</g>
</g>
</svg>
