<?xml version="1.0" encoding="utf-8"?>
<!-- Generator: Adobe Illustrator 19.0.0, SVG Export Plug-In . SVG Version: 6.00 Build 0)  -->
<svg version="1.1" id="Layer_1" xmlns="http://www.w3.org/2000/svg" xmlns:xlink="http://www.w3.org/1999/xlink" x="0px" y="0px"
	 viewBox="0 0 960 1080" style="enable-background:new 0 0 960 1080;" xml:space="preserve">
<style type="text/css">
	.st0{fill:#F2F2F2;}
	.st1{fill:url(#XMLID_2_);}
	.st2{fill:url(#XMLID_3_);}
	.st3{fill:url(#XMLID_4_);}
	.st4{fill:url(#XMLID_5_);}
	.st5{fill:url(#XMLID_6_);}
	.st6{fill:url(#XMLID_7_);}
	.st7{fill:url(#XMLID_8_);}
	.st8{fill:url(#XMLID_9_);}
	.st9{fill:url(#XMLID_10_);}
	.st10{fill:url(#XMLID_11_);}
	.st11{fill:url(#XMLID_12_);}
	.st12{fill:url(#XMLID_13_);}
	.st13{fill:url(#XMLID_14_);}
	.st14{fill:url(#XMLID_15_);}
	.st15{fill:url(#XMLID_16_);}
	.st16{fill:url(#XMLID_17_);}
	.st17{fill:url(#XMLID_18_);}
	.st18{fill:url(#XMLID_19_);}
	.st19{fill:url(#XMLID_20_);}
	.st20{fill:url(#XMLID_21_);}
	.st21{opacity:0.69;}
	.st22{fill:url(#XMLID_22_);}
	.st23{fill:url(#XMLID_23_);}
	.st24{fill:url(#XMLID_24_);}
	.st25{fill:url(#XMLID_25_);}
	.st26{fill:url(#XMLID_26_);}
	.st27{fill:url(#XMLID_27_);}
	.st28{fill:url(#XMLID_28_);}
	.st29{fill:url(#XMLID_29_);}
	.st30{fill:url(#XMLID_30_);}
	.st31{fill:url(#XMLID_31_);}
	.st32{fill:url(#XMLID_32_);}
	.st33{fill:url(#XMLID_33_);}
	.st34{fill:url(#XMLID_34_);}
	.st35{fill:url(#XMLID_35_);}
	.st36{fill:url(#XMLID_36_);}
	.st37{fill:url(#XMLID_37_);}
	.st38{fill:url(#XMLID_38_);}
	.st39{fill:url(#XMLID_39_);}
	.st40{fill:url(#XMLID_40_);}
	.st41{fill:url(#XMLID_41_);}
</style>
<g id="XMLID_18269_">
	<g id="XMLID_15479_">
		<path id="XMLID_18265_" class="st0" d="M189.3,826.4H173l44.9-104.6h0.9l45.1,104.6h-17l-5.9-14.3c0,0-45.7,0-45.8,0L189.3,826.4z
			 M218.2,757.2l-17,40.6H235C235.1,797.8,218.2,757.2,218.2,757.2z"/>
		<path id="XMLID_18263_" class="st0" d="M280.6,790.2v-66.3h16.1v65.4c0,16.4,8.1,23.8,23.1,23.8c14.8,0,22.9-7.4,22.9-23.8v-65.4
			h16.1v66.3c0,25-16.9,37.5-39,37.5C297.5,827.8,280.6,815.3,280.6,790.2z"/>
		<path id="XMLID_18260_" class="st0" d="M458.4,826.4h-19.1l-17.5-24.9c-2.3,0.3-4.8,0.5-7.4,0.5h-10.1v24.4h-16.1V723.9h26.2
			c28.2,0,43.7,15.5,43.7,39.2c0,15.8-7.1,28-20.5,34.2L458.4,826.4z M413.8,788.1c19.8,0,27.7-9.3,27.7-25
			c0-15.5-8.1-24.9-27.7-24.9h-9.5v49.9H413.8z"/>
		<path id="XMLID_18257_" class="st0" d="M479,775.1c0-30.3,23.5-52.6,52.9-52.6c29.4,0,52.9,22.3,52.9,52.6
			c0,30.3-23.5,52.6-52.9,52.6C502.6,827.8,479,805.5,479,775.1z M568.1,775.1c0-21.7-14.9-38-36.2-38s-36.2,16.3-36.2,38
			c0,21.7,14.9,38,36.2,38S568.1,796.9,568.1,775.1z"/>
		<path id="XMLID_18254_" class="st0" d="M680,826.4h-19.1l-17.5-24.9c-2.3,0.3-4.8,0.5-7.4,0.5h-10.1v24.4h-16.1V723.9H636
			c28.2,0,43.7,15.5,43.7,39.2c0,15.8-7.1,28-20.5,34.2L680,826.4z M635.4,788.1c19.8,0,27.7-9.3,27.7-25c0-15.5-8.1-24.9-27.7-24.9
			h-9.5v49.9H635.4z"/>
		<path id="XMLID_15480_" class="st0" d="M712.4,826.4h-16.3l44.9-104.6h0.9l45.1,104.6h-17l-5.9-14.3c0,0-45.7,0-45.8,0
			L712.4,826.4z M741.4,757.2l-17,40.6h33.8C758.3,797.8,741.4,757.2,741.4,757.2z"/>
	</g>
	<g id="XMLID_15457_">
		<path id="XMLID_15475_" class="st0" d="M181.5,853.1h19.7c11.4,0,16.9,6.6,16.9,14.8c0,5.8-2.8,9.8-7.7,12.1
			c7.6,2,12.5,7.8,12.5,15.9c0,9.8-6.4,17.6-19.4,17.6h-22V853.1z M201.8,878c7.6,0,10.6-4.2,10.6-10c0-5.5-3.3-9.8-11.5-9.8h-13.6
			V878H201.8z M202.9,908.2c10,0,14.1-5.4,14.1-12.6c0-7.4-4.5-12.8-14.3-12.8h-15.5v25.4H202.9z"/>
		<path id="XMLID_15472_" class="st0" d="M261,883.2c0-17.8,13.8-30.9,31-30.9c17.1,0,31,13,31,30.9c0,17.8-13.8,30.9-31,30.9
			C274.9,914.1,261,901,261,883.2z M316.9,883.2c0-14.6-10.6-25.6-24.9-25.6c-14.4,0-24.9,11-24.9,25.6c0,14.6,10.6,25.6,24.9,25.6
			C306.4,908.8,316.9,897.8,316.9,883.2z"/>
		<path id="XMLID_15469_" class="st0" d="M402.5,913.4h-7l-12-15.4c-1.6,0.3-3.2,0.4-5,0.4h-7.4v15.1h-5.8v-60.3h13.1
			c16.4,0,24.9,9.7,24.9,22.7c0,9.7-4.8,17.6-14.1,20.8L402.5,913.4z M378.2,893.2c13.7,0,19.2-7.4,19.2-17.5
			c0-10.1-5.6-17.6-19.2-17.6h-7v35H378.2z"/>
		<path id="XMLID_15467_" class="st0" d="M447,853.1h36.4v5.1h-30.6v30.2h27.3v5.1h-27.3v14.8h31.8v5.1H447V853.1z"/>
		<path id="XMLID_15464_" class="st0" d="M528.6,913.4h-5.8l25.4-61.7h0.4l25.5,61.7h-5.9l-4.2-10.5h-31.1L528.6,913.4z
			 M548.5,864.3l-13.6,33.4h27C562,897.8,548.5,864.3,548.5,864.3z"/>
		<path id="XMLID_15462_" class="st0" d="M615.5,853.1h5.8v55.2h28v5.1h-33.8V853.1z"/>
		<path id="XMLID_15460_" class="st0" d="M691.5,853.1h5.9v60.3h-5.9V853.1z"/>
		<path id="XMLID_15458_" class="st0" d="M743.9,899.4c3.2,6,8.7,9.5,15.8,9.5c8.2,0,13.1-4.1,13.1-10.4c0-6.7-4.1-9.7-11.4-13
			l-4.9-2.3c-8.7-4.1-13.9-8-13.9-16.4c0-8.6,6.7-14.4,15.5-14.4c7.5,0,12.8,2.8,16.5,8.9l-4.4,2.8c-2.7-4.5-6.5-6.7-12-6.7
			c-5.9,0-9.9,3.8-9.9,9.1c0,5.8,3.3,7.9,10.6,11.4l4.9,2.3c9.7,4.6,14.7,9,14.7,18.1c0,9.9-7.5,15.8-18.8,15.8
			c-9.8,0-16.9-4.8-20.8-12.2L743.9,899.4z"/>
	</g>
	<g id="XMLID_15077_">
		<g id="XMLID_15432_">
			
				<radialGradient id="XMLID_2_" cx="486.6644" cy="699.911" r="499.8302" gradientTransform="matrix(4.499940e-011 -1 2 8.999880e-011 -913.1577 1186.5754)" gradientUnits="userSpaceOnUse">
				<stop  offset="0" style="stop-color:#53DCBD"/>
				<stop  offset="0.1133" style="stop-color:#3CC2B4"/>
				<stop  offset="0.2441" style="stop-color:#27A9AB"/>
				<stop  offset="0.3242" style="stop-color:#1FA0A8"/>
				<stop  offset="0.6049" style="stop-color:#4489DC"/>
				<stop  offset="1" style="stop-color:#3B68D6"/>
			</radialGradient>
			<path id="XMLID_15456_" class="st1" d="M219.5,628.5c0,0,0.6,5,1.2,12.4c0.8,7.4,1.3,17.3,2.1,27.2c0.3,5,1,9.9,1.1,14.5
				c0,4.6-0.5,9-1.1,12.7c-1.2,7.4-3.3,12.4-3.3,12.4c-0.1,0.3-0.5,0.4-0.7,0.3c-0.1-0.1-0.2-0.2-0.2-0.3c0,0-2.1-5-3.3-12.4
				c-0.6-3.7-1.1-8-1.1-12.7c0.1-4.6,0.8-9.6,1.1-14.5c0.7-9.9,1.3-19.8,2.1-27.2c0.6-7.4,1.2-12.4,1.2-12.4c0-0.3,0.3-0.5,0.5-0.5
				C219.3,628,219.5,628.3,219.5,628.5z"/>
			
				<radialGradient id="XMLID_3_" cx="486.6644" cy="699.911" r="499.8302" gradientTransform="matrix(4.499940e-011 -1 2 8.999880e-011 -913.1577 1186.5754)" gradientUnits="userSpaceOnUse">
				<stop  offset="0" style="stop-color:#53DCBD"/>
				<stop  offset="0.1133" style="stop-color:#3CC2B4"/>
				<stop  offset="0.2441" style="stop-color:#27A9AB"/>
				<stop  offset="0.3242" style="stop-color:#1FA0A8"/>
				<stop  offset="0.6049" style="stop-color:#4489DC"/>
				<stop  offset="1" style="stop-color:#3B68D6"/>
			</radialGradient>
			<path id="XMLID_15455_" class="st2" d="M256.8,567c0,0,0.6,7,1.2,17.5c0.8,10.5,1.3,24.6,2.1,38.6c0.3,7,1,14,1.1,20.6
				c0,6.6-0.5,12.7-1.1,18c-1.2,10.5-3.3,17.5-3.3,17.5c-0.1,0.3-0.4,0.5-0.6,0.4c-0.1-0.1-0.2-0.2-0.3-0.4c0,0-2.1-7-3.3-17.5
				c-0.6-5.3-1.1-11.4-1.1-18c0.1-6.6,0.8-13.6,1.1-20.6c0.7-14,1.3-28.1,2.1-38.6c0.6-10.5,1.2-17.5,1.2-17.5
				c0-0.3,0.3-0.6,0.5-0.5C256.6,566.5,256.8,566.7,256.8,567z"/>
			
				<radialGradient id="XMLID_4_" cx="486.6644" cy="699.911" r="499.8302" gradientTransform="matrix(4.499940e-011 -1 2 8.999880e-011 -913.1577 1186.5754)" gradientUnits="userSpaceOnUse">
				<stop  offset="0" style="stop-color:#53DCBD"/>
				<stop  offset="0.1133" style="stop-color:#3CC2B4"/>
				<stop  offset="0.2441" style="stop-color:#27A9AB"/>
				<stop  offset="0.3242" style="stop-color:#1FA0A8"/>
				<stop  offset="0.6049" style="stop-color:#4489DC"/>
				<stop  offset="1" style="stop-color:#3B68D6"/>
			</radialGradient>
			<path id="XMLID_15454_" class="st3" d="M294.1,505.5c0,0,0.5,9.5,1.2,23.8c0.8,14.3,1.3,33.3,2.1,52.4c0.3,9.5,1,19,1.1,28
				c0,8.9-0.5,17.3-1.1,24.4c-1.2,14.3-3.3,23.8-3.3,23.8c-0.1,0.3-0.3,0.5-0.6,0.4c-0.2-0.1-0.3-0.2-0.3-0.4c0,0-2.1-9.5-3.3-23.8
				c-0.6-7.1-1.1-15.5-1.1-24.4c0.1-8.9,0.8-18.4,1.1-28c0.7-19,1.3-38.1,2.1-52.4c0.7-14.3,1.2-23.8,1.2-23.8
				c0-0.3,0.2-0.6,0.5-0.5C293.9,505,294.1,505.2,294.1,505.5z"/>
			
				<radialGradient id="XMLID_5_" cx="486.6644" cy="699.911" r="499.8302" gradientTransform="matrix(4.499940e-011 -1 2 8.999880e-011 -913.1577 1186.5754)" gradientUnits="userSpaceOnUse">
				<stop  offset="0" style="stop-color:#53DCBD"/>
				<stop  offset="0.1133" style="stop-color:#3CC2B4"/>
				<stop  offset="0.2441" style="stop-color:#27A9AB"/>
				<stop  offset="0.3242" style="stop-color:#1FA0A8"/>
				<stop  offset="0.6049" style="stop-color:#4489DC"/>
				<stop  offset="1" style="stop-color:#3B68D6"/>
			</radialGradient>
			<path id="XMLID_15453_" class="st4" d="M331.4,444c0,0,0.5,12.4,1.2,31c0.8,18.6,1.3,43.4,2.1,68.1c0.3,12.4,1,24.8,1.1,36.4
				c0,11.6-0.5,22.5-1.1,31.7c-1.2,18.6-3.3,31-3.3,31c-0.1,0.3-0.3,0.5-0.6,0.5c-0.2-0.1-0.3-0.2-0.4-0.5c0,0-2.1-12.4-3.3-31
				c-0.6-9.3-1.1-20.1-1.1-31.7c0.1-11.6,0.8-24,1.1-36.4c0.7-24.8,1.3-49.6,2.1-68.1c0.7-18.6,1.2-31,1.2-31c0-0.3,0.2-0.6,0.5-0.6
				C331.2,443.4,331.4,443.7,331.4,444z"/>
			
				<radialGradient id="XMLID_6_" cx="486.6644" cy="699.911" r="499.8302" gradientTransform="matrix(4.499940e-011 -1 2 8.999880e-011 -913.1577 1186.5754)" gradientUnits="userSpaceOnUse">
				<stop  offset="0" style="stop-color:#53DCBD"/>
				<stop  offset="0.1133" style="stop-color:#3CC2B4"/>
				<stop  offset="0.2441" style="stop-color:#27A9AB"/>
				<stop  offset="0.3242" style="stop-color:#1FA0A8"/>
				<stop  offset="0.6049" style="stop-color:#4489DC"/>
				<stop  offset="1" style="stop-color:#3B68D6"/>
			</radialGradient>
			<path id="XMLID_15452_" class="st5" d="M368.6,382.5c0,0,0.5,15.5,1.2,38.8c0.8,23.3,1.4,54.3,2.1,85.4c0.3,15.5,1,31,1.1,45.6
				c0,14.5-0.5,28.1-1.1,39.8c-1.2,23.3-3.3,38.8-3.3,38.8c0,0.3-0.3,0.5-0.5,0.5c-0.2,0-0.4-0.2-0.4-0.5c0,0-2.1-15.5-3.3-38.8
				c-0.6-11.6-1.1-25.2-1.1-39.8c0.1-14.5,0.8-30.1,1.1-45.6c0.7-31,1.3-62.1,2.1-85.4c0.7-23.3,1.2-38.8,1.2-38.8
				c0-0.3,0.2-0.6,0.5-0.6C368.4,381.9,368.6,382.2,368.6,382.5z"/>
			
				<radialGradient id="XMLID_7_" cx="486.6644" cy="699.911" r="499.8302" gradientTransform="matrix(4.499940e-011 -1 2 8.999880e-011 -913.1577 1186.5754)" gradientUnits="userSpaceOnUse">
				<stop  offset="0" style="stop-color:#53DCBD"/>
				<stop  offset="0.1133" style="stop-color:#3CC2B4"/>
				<stop  offset="0.2441" style="stop-color:#27A9AB"/>
				<stop  offset="0.3242" style="stop-color:#1FA0A8"/>
				<stop  offset="0.6049" style="stop-color:#4489DC"/>
				<stop  offset="1" style="stop-color:#3B68D6"/>
			</radialGradient>
			<path id="XMLID_15447_" class="st6" d="M405.9,551.5c0,0,2.1,17.9,3.3,35.8c0.3,4.5,1.1,8.9,1.1,13.1c0,4.2-0.5,8.1-1.1,11.5
				c-1.2,6.7-3.3,11.2-3.3,11.2c-0.2,0.3-0.5,0.4-0.7,0.2c-0.1-0.1-0.1-0.1-0.2-0.2c0,0-2.1-4.5-3.3-11.2c-0.6-3.4-1.1-7.3-1.1-11.5
				c0.1-4.2,0.9-8.7,1.1-13.1c1.2-17.9,3.3-35.8,3.3-35.8c0-0.3,0.3-0.5,0.5-0.5C405.7,551,405.9,551.2,405.9,551.5z"/>
			
				<radialGradient id="XMLID_8_" cx="486.6644" cy="699.911" r="499.8302" gradientTransform="matrix(4.499940e-011 -1 2 8.999880e-011 -913.1577 1186.5754)" gradientUnits="userSpaceOnUse">
				<stop  offset="0" style="stop-color:#53DCBD"/>
				<stop  offset="0.1133" style="stop-color:#3CC2B4"/>
				<stop  offset="0.2441" style="stop-color:#27A9AB"/>
				<stop  offset="0.3242" style="stop-color:#1FA0A8"/>
				<stop  offset="0.6049" style="stop-color:#4489DC"/>
				<stop  offset="1" style="stop-color:#3B68D6"/>
			</radialGradient>
			<path id="XMLID_15446_" class="st7" d="M405.9,321c0,0,0.5,10.5,1.2,26.3c0.8,15.8,1.3,36.8,2.1,57.8c0.3,10.5,1,21,1.1,30.9
				c0,9.9-0.5,19-1.1,26.9c-1.2,15.8-3.3,26.3-3.3,26.3c-0.1,0.3-0.3,0.5-0.6,0.4c-0.2-0.1-0.3-0.2-0.4-0.4c0,0-2.1-10.5-3.3-26.3
				c-0.6-7.9-1.1-17.1-1.1-26.9c0.1-9.9,0.8-20.4,1.1-30.9c0.7-21,1.3-42,2.1-57.8c0.7-15.8,1.2-26.3,1.2-26.3
				c0-0.3,0.2-0.6,0.5-0.6C405.7,320.4,405.9,320.7,405.9,321z"/>
			
				<radialGradient id="XMLID_9_" cx="486.6644" cy="699.911" r="499.8302" gradientTransform="matrix(4.499940e-011 -1 2 8.999880e-011 -913.1577 1186.5754)" gradientUnits="userSpaceOnUse">
				<stop  offset="0" style="stop-color:#53DCBD"/>
				<stop  offset="0.1133" style="stop-color:#3CC2B4"/>
				<stop  offset="0.2441" style="stop-color:#27A9AB"/>
				<stop  offset="0.3242" style="stop-color:#1FA0A8"/>
				<stop  offset="0.6049" style="stop-color:#4489DC"/>
				<stop  offset="1" style="stop-color:#3B68D6"/>
			</radialGradient>
			<path id="XMLID_15445_" class="st8" d="M443.2,259.5c0,0,0.5,10.4,1.2,26.1c0.8,15.6,1.3,36.5,2.1,57.3c0.3,10.4,1,20.8,1.1,30.6
				c0,9.8-0.5,18.9-1.1,26.7c-1.2,15.6-3.3,26.1-3.3,26.1c-0.1,0.3-0.3,0.5-0.6,0.4c-0.2-0.1-0.3-0.2-0.3-0.4c0,0-2.1-10.4-3.3-26.1
				c-0.6-7.8-1.1-16.9-1.1-26.7c0.1-9.8,0.8-20.2,1.1-30.6c0.7-20.8,1.3-41.7,2.1-57.3c0.7-15.6,1.2-26.1,1.2-26.1
				c0-0.3,0.2-0.6,0.5-0.6C443,258.9,443.2,259.2,443.2,259.5z"/>
			
				<radialGradient id="XMLID_10_" cx="486.6644" cy="699.911" r="499.8302" gradientTransform="matrix(4.499940e-011 -1 2 8.999880e-011 -913.1577 1186.5754)" gradientUnits="userSpaceOnUse">
				<stop  offset="0" style="stop-color:#53DCBD"/>
				<stop  offset="0.1133" style="stop-color:#3CC2B4"/>
				<stop  offset="0.2441" style="stop-color:#27A9AB"/>
				<stop  offset="0.3242" style="stop-color:#1FA0A8"/>
				<stop  offset="0.6049" style="stop-color:#4489DC"/>
				<stop  offset="1" style="stop-color:#3B68D6"/>
			</radialGradient>
			<path id="XMLID_15444_" class="st9" d="M443.2,551.5c0,0,2.1,16.8,3.3,33.5c0.3,4.2,1.1,8.4,1.1,12.3c0,3.9-0.5,7.6-1.1,10.7
				c-1.2,6.3-3.3,10.5-3.3,10.5c-0.2,0.3-0.5,0.4-0.8,0.2c-0.1-0.1-0.1-0.1-0.2-0.2c0,0-2.1-4.2-3.3-10.5c-0.6-3.1-1.1-6.8-1.1-10.7
				c0.1-3.9,0.9-8.1,1.1-12.3c1.2-16.8,3.3-33.5,3.3-33.5c0-0.3,0.3-0.5,0.5-0.5C443,551,443.2,551.2,443.2,551.5z"/>
			
				<radialGradient id="XMLID_11_" cx="486.6644" cy="699.911" r="499.8302" gradientTransform="matrix(4.499940e-011 -1 2 8.999880e-011 -913.1577 1186.5754)" gradientUnits="userSpaceOnUse">
				<stop  offset="0" style="stop-color:#53DCBD"/>
				<stop  offset="0.1133" style="stop-color:#3CC2B4"/>
				<stop  offset="0.2441" style="stop-color:#27A9AB"/>
				<stop  offset="0.3242" style="stop-color:#1FA0A8"/>
				<stop  offset="0.6049" style="stop-color:#4489DC"/>
				<stop  offset="1" style="stop-color:#3B68D6"/>
			</radialGradient>
			<path id="XMLID_15443_" class="st10" d="M480.5,203.6c0,0,0.5,10.3,1.2,25.7c0.8,15.4,1.3,36,2.1,56.6c0.3,10.3,1,20.6,1.1,30.2
				c0,9.7-0.5,18.7-1.1,26.4c-1.2,15.4-3.3,25.7-3.3,25.7c-0.1,0.3-0.3,0.5-0.6,0.4c-0.2-0.1-0.3-0.2-0.3-0.4c0,0-2.1-10.3-3.3-25.7
				c-0.6-7.7-1.1-16.7-1.1-26.4c0.1-9.7,0.8-19.9,1.1-30.2c0.7-20.6,1.3-41.2,2.1-56.6c0.7-15.4,1.2-25.7,1.2-25.7
				c0-0.3,0.2-0.6,0.5-0.6C480.3,203,480.5,203.3,480.5,203.6z"/>
			
				<radialGradient id="XMLID_12_" cx="486.6644" cy="699.911" r="499.8302" gradientTransform="matrix(4.499940e-011 -1 2 8.999880e-011 -913.1577 1186.5754)" gradientUnits="userSpaceOnUse">
				<stop  offset="0" style="stop-color:#53DCBD"/>
				<stop  offset="0.1133" style="stop-color:#3CC2B4"/>
				<stop  offset="0.2441" style="stop-color:#27A9AB"/>
				<stop  offset="0.3242" style="stop-color:#1FA0A8"/>
				<stop  offset="0.6049" style="stop-color:#4489DC"/>
				<stop  offset="1" style="stop-color:#3B68D6"/>
			</radialGradient>
			<path id="XMLID_15442_" class="st11" d="M480.5,551.5c0,0,2.1,16.4,3.3,32.8c0.3,4.1,1.1,8.2,1.1,12c0,3.8-0.5,7.4-1.1,10.5
				c-1.2,6.1-3.3,10.2-3.3,10.2c-0.2,0.3-0.5,0.4-0.8,0.2c-0.1-0.1-0.1-0.1-0.2-0.2c0,0-2.1-4.1-3.3-10.2c-0.6-3.1-1.1-6.7-1.1-10.5
				c0.1-3.8,0.9-7.9,1.1-12c1.2-16.4,3.3-32.8,3.3-32.8c0-0.3,0.3-0.5,0.5-0.5C480.3,551,480.5,551.2,480.5,551.5z"/>
			
				<radialGradient id="XMLID_13_" cx="486.6644" cy="699.911" r="499.8302" gradientTransform="matrix(4.499940e-011 -1 2 8.999880e-011 -913.1577 1186.5754)" gradientUnits="userSpaceOnUse">
				<stop  offset="0" style="stop-color:#53DCBD"/>
				<stop  offset="0.1133" style="stop-color:#3CC2B4"/>
				<stop  offset="0.2441" style="stop-color:#27A9AB"/>
				<stop  offset="0.3242" style="stop-color:#1FA0A8"/>
				<stop  offset="0.6049" style="stop-color:#4489DC"/>
				<stop  offset="1" style="stop-color:#3B68D6"/>
			</radialGradient>
			<path id="XMLID_15441_" class="st12" d="M516.8,618.5c0,0-2.1-4.2-3.3-10.5c-0.6-3.1-1.1-6.8-1.1-10.7c0.1-3.9,0.9-8.1,1.1-12.3
				c1.2-16.8,3.3-33.5,3.3-33.5c0-0.3,0.3-0.5,0.5-0.5c0.2,0,0.4,0.2,0.4,0.5c0,0,2.1,16.8,3.3,33.5c0.3,4.2,1.1,8.4,1.1,12.3
				c0,3.9-0.5,7.6-1.1,10.7c-1.2,6.3-3.3,10.5-3.3,10.5c-0.2,0.3-0.5,0.4-0.8,0.2C516.9,618.7,516.9,618.6,516.8,618.5z"/>
			
				<radialGradient id="XMLID_14_" cx="486.6644" cy="699.911" r="499.8302" gradientTransform="matrix(4.499940e-011 -1 2 8.999880e-011 -913.1577 1186.5754)" gradientUnits="userSpaceOnUse">
				<stop  offset="0" style="stop-color:#53DCBD"/>
				<stop  offset="0.1133" style="stop-color:#3CC2B4"/>
				<stop  offset="0.2441" style="stop-color:#27A9AB"/>
				<stop  offset="0.3242" style="stop-color:#1FA0A8"/>
				<stop  offset="0.6049" style="stop-color:#4489DC"/>
				<stop  offset="1" style="stop-color:#3B68D6"/>
			</radialGradient>
			<path id="XMLID_15440_" class="st13" d="M517.8,260.8c0,0,0.5,10.7,1.2,26.7c0.8,16,1.3,37.4,2.1,58.8c0.3,10.7,1,21.4,1.1,31.4
				c0,10-0.5,19.4-1.1,27.4c-1.2,16-3.3,26.7-3.3,26.7c-0.1,0.3-0.3,0.5-0.6,0.4c-0.2-0.1-0.3-0.2-0.4-0.4c0,0-2.1-10.7-3.3-26.7
				c-0.6-8-1.1-17.4-1.1-27.4c0.1-10,0.8-20.7,1.1-31.4c0.7-21.4,1.3-42.7,2.1-58.8c0.7-16,1.2-26.7,1.2-26.7c0-0.3,0.2-0.6,0.5-0.6
				C517.6,260.3,517.8,260.5,517.8,260.8z"/>
			
				<radialGradient id="XMLID_15_" cx="486.6644" cy="699.911" r="499.8302" gradientTransform="matrix(4.499940e-011 -1 2 8.999880e-011 -913.1577 1186.5754)" gradientUnits="userSpaceOnUse">
				<stop  offset="0" style="stop-color:#53DCBD"/>
				<stop  offset="0.1133" style="stop-color:#3CC2B4"/>
				<stop  offset="0.2441" style="stop-color:#27A9AB"/>
				<stop  offset="0.3242" style="stop-color:#1FA0A8"/>
				<stop  offset="0.6049" style="stop-color:#4489DC"/>
				<stop  offset="1" style="stop-color:#3B68D6"/>
			</radialGradient>
			<path id="XMLID_15439_" class="st14" d="M555.1,322.1c0,0,0.5,10.8,1.2,27.1c0.8,16.3,1.3,37.9,2.1,59.6
				c0.3,10.8,1,21.7,1.1,31.8c0,10.2-0.5,19.6-1.1,27.8c-1.2,16.3-3.3,27.1-3.3,27.1c-0.1,0.3-0.3,0.5-0.6,0.4
				c-0.2-0.1-0.3-0.2-0.4-0.4c0,0-2.1-10.8-3.3-27.1c-0.6-8.1-1.1-17.6-1.1-27.8c0.1-10.2,0.8-21,1.1-31.8
				c0.7-21.7,1.3-43.4,2.1-59.6c0.7-16.3,1.2-27.1,1.2-27.1c0-0.3,0.2-0.6,0.5-0.6C554.9,321.6,555,321.8,555.1,322.1z"/>
			
				<radialGradient id="XMLID_16_" cx="486.6644" cy="699.911" r="499.8302" gradientTransform="matrix(4.499940e-011 -1 2 8.999880e-011 -913.1577 1186.5754)" gradientUnits="userSpaceOnUse">
				<stop  offset="0" style="stop-color:#53DCBD"/>
				<stop  offset="0.1133" style="stop-color:#3CC2B4"/>
				<stop  offset="0.2441" style="stop-color:#27A9AB"/>
				<stop  offset="0.3242" style="stop-color:#1FA0A8"/>
				<stop  offset="0.6049" style="stop-color:#4489DC"/>
				<stop  offset="1" style="stop-color:#3B68D6"/>
			</radialGradient>
			<path id="XMLID_15438_" class="st15" d="M554.1,622.4c0,0-2.1-4.4-3.3-11.1c-0.6-3.3-1.1-7.2-1.1-11.4c0.1-4.2,0.9-8.6,1.1-13
				c1.2-17.7,3.3-35.4,3.3-35.4c0-0.3,0.3-0.5,0.5-0.5c0.2,0,0.4,0.2,0.4,0.5c0,0,2.1,17.7,3.3,35.4c0.3,4.4,1.1,8.9,1.1,13
				c0,4.2-0.5,8-1.1,11.4c-1.2,6.6-3.3,11.1-3.3,11.1c-0.2,0.3-0.5,0.4-0.7,0.2C554.2,622.5,554.2,622.5,554.1,622.4z"/>
			
				<radialGradient id="XMLID_17_" cx="486.6644" cy="699.911" r="499.8302" gradientTransform="matrix(4.499940e-011 -1 2 8.999880e-011 -913.1577 1186.5754)" gradientUnits="userSpaceOnUse">
				<stop  offset="0" style="stop-color:#53DCBD"/>
				<stop  offset="0.1133" style="stop-color:#3CC2B4"/>
				<stop  offset="0.2441" style="stop-color:#27A9AB"/>
				<stop  offset="0.3242" style="stop-color:#1FA0A8"/>
				<stop  offset="0.6049" style="stop-color:#4489DC"/>
				<stop  offset="1" style="stop-color:#3B68D6"/>
			</radialGradient>
			<path id="XMLID_15437_" class="st16" d="M592.3,383.4c0,0,0.5,15.5,1.2,38.7c0.8,23.2,1.4,54.1,2.1,85c0.3,15.5,1,30.9,1.1,45.4
				c0,14.5-0.5,28-1.1,39.6c-1.2,23.2-3.3,38.7-3.3,38.7c0,0.3-0.3,0.5-0.5,0.5c-0.2,0-0.4-0.2-0.4-0.5c0,0-2.1-15.5-3.3-38.7
				c-0.6-11.6-1.1-25.1-1.1-39.6c0.1-14.5,0.8-30,1.1-45.4c0.7-30.9,1.3-61.8,2.1-85c0.7-23.2,1.2-38.7,1.2-38.7
				c0-0.3,0.2-0.6,0.5-0.6C592.1,382.9,592.3,383.1,592.3,383.4z"/>
			
				<radialGradient id="XMLID_18_" cx="486.6644" cy="699.911" r="499.8302" gradientTransform="matrix(4.499940e-011 -1 2 8.999880e-011 -913.1577 1186.5754)" gradientUnits="userSpaceOnUse">
				<stop  offset="0" style="stop-color:#53DCBD"/>
				<stop  offset="0.1133" style="stop-color:#3CC2B4"/>
				<stop  offset="0.2441" style="stop-color:#27A9AB"/>
				<stop  offset="0.3242" style="stop-color:#1FA0A8"/>
				<stop  offset="0.6049" style="stop-color:#4489DC"/>
				<stop  offset="1" style="stop-color:#3B68D6"/>
			</radialGradient>
			<path id="XMLID_15436_" class="st17" d="M629.6,444.7c0,0,0.5,12.4,1.2,30.9c0.8,18.5,1.3,43.2,2.1,67.9
				c0.3,12.4,1,24.7,1.1,36.3c0,11.6-0.5,22.4-1.1,31.6c-1.2,18.5-3.3,30.9-3.3,30.9c-0.1,0.3-0.3,0.5-0.6,0.5
				c-0.2-0.1-0.3-0.2-0.4-0.5c0,0-2.1-12.4-3.3-30.9c-0.6-9.3-1.1-20.1-1.1-31.6c0.1-11.6,0.8-23.9,1.1-36.3
				c0.7-24.7,1.3-49.4,2.1-67.9c0.7-18.5,1.2-30.9,1.2-30.9c0-0.3,0.2-0.6,0.5-0.6C629.4,444.2,629.6,444.4,629.6,444.7z"/>
			
				<radialGradient id="XMLID_19_" cx="486.6644" cy="699.911" r="499.8302" gradientTransform="matrix(4.499940e-011 -1 2 8.999880e-011 -913.1577 1186.5754)" gradientUnits="userSpaceOnUse">
				<stop  offset="0" style="stop-color:#53DCBD"/>
				<stop  offset="0.1133" style="stop-color:#3CC2B4"/>
				<stop  offset="0.2441" style="stop-color:#27A9AB"/>
				<stop  offset="0.3242" style="stop-color:#1FA0A8"/>
				<stop  offset="0.6049" style="stop-color:#4489DC"/>
				<stop  offset="1" style="stop-color:#3B68D6"/>
			</radialGradient>
			<path id="XMLID_15435_" class="st18" d="M666.9,506c0,0,0.5,9.5,1.2,23.7c0.8,14.2,1.3,33.2,2.1,52.2c0.3,9.5,1,19,1.1,27.9
				c0,8.9-0.5,17.2-1.1,24.3c-1.2,14.2-3.3,23.7-3.3,23.7c-0.1,0.3-0.3,0.5-0.6,0.4c-0.2-0.1-0.3-0.2-0.3-0.4c0,0-2.1-9.5-3.3-23.7
				c-0.6-7.1-1.1-15.4-1.1-24.3c0.1-8.9,0.8-18.4,1.1-27.9c0.7-19,1.3-37.9,2.1-52.2c0.7-14.2,1.2-23.7,1.2-23.7
				c0-0.3,0.2-0.6,0.5-0.5C666.7,505.5,666.9,505.7,666.9,506z"/>
			
				<radialGradient id="XMLID_20_" cx="486.6644" cy="699.911" r="499.8302" gradientTransform="matrix(4.499940e-011 -1 2 8.999880e-011 -913.1577 1186.5754)" gradientUnits="userSpaceOnUse">
				<stop  offset="0" style="stop-color:#53DCBD"/>
				<stop  offset="0.1133" style="stop-color:#3CC2B4"/>
				<stop  offset="0.2441" style="stop-color:#27A9AB"/>
				<stop  offset="0.3242" style="stop-color:#1FA0A8"/>
				<stop  offset="0.6049" style="stop-color:#4489DC"/>
				<stop  offset="1" style="stop-color:#3B68D6"/>
			</radialGradient>
			<path id="XMLID_15434_" class="st19" d="M704.2,567.3c0,0,0.6,7,1.2,17.5c0.8,10.5,1.3,24.5,2.1,38.5c0.3,7,1,14,1.1,20.5
				c0,6.6-0.5,12.7-1.1,17.9c-1.2,10.5-3.3,17.5-3.3,17.5c-0.1,0.3-0.4,0.5-0.6,0.4c-0.1-0.1-0.2-0.2-0.3-0.4c0,0-2.1-7-3.3-17.5
				c-0.6-5.2-1.1-11.4-1.1-17.9c0.1-6.6,0.8-13.6,1.1-20.5c0.7-14,1.3-28,2.1-38.5c0.6-10.5,1.2-17.5,1.2-17.5
				c0-0.3,0.3-0.6,0.5-0.5C704,566.8,704.2,567.1,704.2,567.3z"/>
			
				<radialGradient id="XMLID_21_" cx="486.6644" cy="699.911" r="499.8302" gradientTransform="matrix(4.499940e-011 -1 2 8.999880e-011 -913.1577 1186.5754)" gradientUnits="userSpaceOnUse">
				<stop  offset="0" style="stop-color:#53DCBD"/>
				<stop  offset="0.1133" style="stop-color:#3CC2B4"/>
				<stop  offset="0.2441" style="stop-color:#27A9AB"/>
				<stop  offset="0.3242" style="stop-color:#1FA0A8"/>
				<stop  offset="0.6049" style="stop-color:#4489DC"/>
				<stop  offset="1" style="stop-color:#3B68D6"/>
			</radialGradient>
			<path id="XMLID_15433_" class="st20" d="M741.5,628.6c0,0,0.6,4.9,1.2,12.4c0.8,7.4,1.3,17.3,2.1,27.2c0.3,4.9,1,9.9,1.1,14.5
				c0,4.6-0.5,9-1.1,12.7c-1.2,7.4-3.3,12.4-3.3,12.4c-0.1,0.3-0.5,0.4-0.7,0.3c-0.1-0.1-0.2-0.2-0.2-0.3c0,0-2.1-4.9-3.3-12.4
				c-0.6-3.7-1.1-8-1.1-12.7c0.1-4.6,0.8-9.6,1.1-14.5c0.7-9.9,1.3-19.8,2.1-27.2c0.6-7.4,1.2-12.4,1.2-12.4c0-0.3,0.3-0.5,0.5-0.5
				C741.3,628.2,741.4,628.4,741.5,628.6z"/>
		</g>
		<g id="XMLID_15078_" class="st21">
			
				<radialGradient id="XMLID_22_" cx="486.6644" cy="699.911" r="499.8302" gradientTransform="matrix(4.499940e-011 -1 2 8.999880e-011 -913.1577 1186.5754)" gradientUnits="userSpaceOnUse">
				<stop  offset="0" style="stop-color:#53DCBD"/>
				<stop  offset="0.1133" style="stop-color:#3CC2B4"/>
				<stop  offset="0.2441" style="stop-color:#27A9AB"/>
				<stop  offset="0.3242" style="stop-color:#1FA0A8"/>
				<stop  offset="0.6049" style="stop-color:#4489DC"/>
				<stop  offset="1" style="stop-color:#3B68D6"/>
			</radialGradient>
			<path id="XMLID_15431_" class="st22" d="M219.5,628.5c0,0,0.6,5,1.2,12.4c0.8,7.4,1.3,17.3,2.1,27.2c0.3,5,1,9.9,1.1,14.5
				c0,4.6-0.5,9-1.1,12.7c-1.2,7.4-3.3,12.4-3.3,12.4c-0.1,0.3-0.5,0.4-0.7,0.3c-0.1-0.1-0.2-0.2-0.2-0.3c0,0-2.1-5-3.3-12.4
				c-0.6-3.7-1.1-8-1.1-12.7c0.1-4.6,0.8-9.6,1.1-14.5c0.7-9.9,1.3-19.8,2.1-27.2c0.6-7.4,1.2-12.4,1.2-12.4c0-0.3,0.3-0.5,0.5-0.5
				C219.3,628,219.5,628.3,219.5,628.5z"/>
			
				<radialGradient id="XMLID_23_" cx="486.6644" cy="699.911" r="499.8302" gradientTransform="matrix(4.499940e-011 -1 2 8.999880e-011 -913.1577 1186.5754)" gradientUnits="userSpaceOnUse">
				<stop  offset="0" style="stop-color:#53DCBD"/>
				<stop  offset="0.1133" style="stop-color:#3CC2B4"/>
				<stop  offset="0.2441" style="stop-color:#27A9AB"/>
				<stop  offset="0.3242" style="stop-color:#1FA0A8"/>
				<stop  offset="0.6049" style="stop-color:#4489DC"/>
				<stop  offset="1" style="stop-color:#3B68D6"/>
			</radialGradient>
			<path id="XMLID_15430_" class="st23" d="M256.8,567c0,0,0.6,7,1.2,17.5c0.8,10.5,1.3,24.6,2.1,38.6c0.3,7,1,14,1.1,20.6
				c0,6.6-0.5,12.7-1.1,18c-1.2,10.5-3.3,17.5-3.3,17.5c-0.1,0.3-0.4,0.5-0.6,0.4c-0.1-0.1-0.2-0.2-0.3-0.4c0,0-2.1-7-3.3-17.5
				c-0.6-5.3-1.1-11.4-1.1-18c0.1-6.6,0.8-13.6,1.1-20.6c0.7-14,1.3-28.1,2.1-38.6c0.6-10.5,1.2-17.5,1.2-17.5
				c0-0.3,0.3-0.6,0.5-0.5C256.6,566.5,256.8,566.7,256.8,567z"/>
			
				<radialGradient id="XMLID_24_" cx="486.6644" cy="699.911" r="499.8302" gradientTransform="matrix(4.499940e-011 -1 2 8.999880e-011 -913.1577 1186.5754)" gradientUnits="userSpaceOnUse">
				<stop  offset="0" style="stop-color:#53DCBD"/>
				<stop  offset="0.1133" style="stop-color:#3CC2B4"/>
				<stop  offset="0.2441" style="stop-color:#27A9AB"/>
				<stop  offset="0.3242" style="stop-color:#1FA0A8"/>
				<stop  offset="0.6049" style="stop-color:#4489DC"/>
				<stop  offset="1" style="stop-color:#3B68D6"/>
			</radialGradient>
			<path id="XMLID_15429_" class="st24" d="M294.1,505.5c0,0,0.5,9.5,1.2,23.8c0.8,14.3,1.3,33.3,2.1,52.4c0.3,9.5,1,19,1.1,28
				c0,8.9-0.5,17.3-1.1,24.4c-1.2,14.3-3.3,23.8-3.3,23.8c-0.1,0.3-0.3,0.5-0.6,0.4c-0.2-0.1-0.3-0.2-0.3-0.4c0,0-2.1-9.5-3.3-23.8
				c-0.6-7.1-1.1-15.5-1.1-24.4c0.1-8.9,0.8-18.4,1.1-28c0.7-19,1.3-38.1,2.1-52.4c0.7-14.3,1.2-23.8,1.2-23.8
				c0-0.3,0.2-0.6,0.5-0.5C293.9,505,294.1,505.2,294.1,505.5z"/>
			
				<radialGradient id="XMLID_25_" cx="486.6644" cy="699.911" r="499.8302" gradientTransform="matrix(4.499940e-011 -1 2 8.999880e-011 -913.1577 1186.5754)" gradientUnits="userSpaceOnUse">
				<stop  offset="0" style="stop-color:#53DCBD"/>
				<stop  offset="0.1133" style="stop-color:#3CC2B4"/>
				<stop  offset="0.2441" style="stop-color:#27A9AB"/>
				<stop  offset="0.3242" style="stop-color:#1FA0A8"/>
				<stop  offset="0.6049" style="stop-color:#4489DC"/>
				<stop  offset="1" style="stop-color:#3B68D6"/>
			</radialGradient>
			<path id="XMLID_15428_" class="st25" d="M331.4,444c0,0,0.5,12.4,1.2,31c0.8,18.6,1.3,43.4,2.1,68.1c0.3,12.4,1,24.8,1.1,36.4
				c0,11.6-0.5,22.5-1.1,31.7c-1.2,18.6-3.3,31-3.3,31c-0.1,0.3-0.3,0.5-0.6,0.5c-0.2-0.1-0.3-0.2-0.4-0.5c0,0-2.1-12.4-3.3-31
				c-0.6-9.3-1.1-20.1-1.1-31.7c0.1-11.6,0.8-24,1.1-36.4c0.7-24.8,1.3-49.6,2.1-68.1c0.7-18.6,1.2-31,1.2-31c0-0.3,0.2-0.6,0.5-0.6
				C331.2,443.4,331.4,443.7,331.4,444z"/>
			
				<radialGradient id="XMLID_26_" cx="486.6644" cy="699.911" r="499.8302" gradientTransform="matrix(4.499940e-011 -1 2 8.999880e-011 -913.1577 1186.5754)" gradientUnits="userSpaceOnUse">
				<stop  offset="0" style="stop-color:#53DCBD"/>
				<stop  offset="0.1133" style="stop-color:#3CC2B4"/>
				<stop  offset="0.2441" style="stop-color:#27A9AB"/>
				<stop  offset="0.3242" style="stop-color:#1FA0A8"/>
				<stop  offset="0.6049" style="stop-color:#4489DC"/>
				<stop  offset="1" style="stop-color:#3B68D6"/>
			</radialGradient>
			<path id="XMLID_15427_" class="st26" d="M368.6,382.5c0,0,0.5,15.5,1.2,38.8c0.8,23.3,1.4,54.3,2.1,85.4c0.3,15.5,1,31,1.1,45.6
				c0,14.5-0.5,28.1-1.1,39.8c-1.2,23.3-3.3,38.8-3.3,38.8c0,0.3-0.3,0.5-0.5,0.5c-0.2,0-0.4-0.2-0.4-0.5c0,0-2.1-15.5-3.3-38.8
				c-0.6-11.6-1.1-25.2-1.1-39.8c0.1-14.5,0.8-30.1,1.1-45.6c0.7-31,1.3-62.1,2.1-85.4c0.7-23.3,1.2-38.8,1.2-38.8
				c0-0.3,0.2-0.6,0.5-0.6C368.4,381.9,368.6,382.2,368.6,382.5z"/>
			
				<radialGradient id="XMLID_27_" cx="486.6644" cy="699.911" r="499.8302" gradientTransform="matrix(4.499940e-011 -1 2 8.999880e-011 -913.1577 1186.5754)" gradientUnits="userSpaceOnUse">
				<stop  offset="0" style="stop-color:#53DCBD"/>
				<stop  offset="0.1133" style="stop-color:#3CC2B4"/>
				<stop  offset="0.2441" style="stop-color:#27A9AB"/>
				<stop  offset="0.3242" style="stop-color:#1FA0A8"/>
				<stop  offset="0.6049" style="stop-color:#4489DC"/>
				<stop  offset="1" style="stop-color:#3B68D6"/>
			</radialGradient>
			<path id="XMLID_15426_" class="st27" d="M405.9,551.5c0,0,2.1,17.9,3.3,35.8c0.3,4.5,1.1,8.9,1.1,13.1c0,4.2-0.5,8.1-1.1,11.5
				c-1.2,6.7-3.3,11.2-3.3,11.2c-0.2,0.3-0.5,0.4-0.7,0.2c-0.1-0.1-0.1-0.1-0.2-0.2c0,0-2.1-4.5-3.3-11.2c-0.6-3.4-1.1-7.3-1.1-11.5
				c0.1-4.2,0.9-8.7,1.1-13.1c1.2-17.9,3.3-35.8,3.3-35.8c0-0.3,0.3-0.5,0.5-0.5C405.7,551,405.9,551.2,405.9,551.5z"/>
			
				<radialGradient id="XMLID_28_" cx="486.6644" cy="699.911" r="499.8302" gradientTransform="matrix(4.499940e-011 -1 2 8.999880e-011 -913.1577 1186.5754)" gradientUnits="userSpaceOnUse">
				<stop  offset="0" style="stop-color:#53DCBD"/>
				<stop  offset="0.1133" style="stop-color:#3CC2B4"/>
				<stop  offset="0.2441" style="stop-color:#27A9AB"/>
				<stop  offset="0.3242" style="stop-color:#1FA0A8"/>
				<stop  offset="0.6049" style="stop-color:#4489DC"/>
				<stop  offset="1" style="stop-color:#3B68D6"/>
			</radialGradient>
			<path id="XMLID_15425_" class="st28" d="M405.9,321c0,0,0.5,10.5,1.2,26.3c0.8,15.8,1.3,36.8,2.1,57.8c0.3,10.5,1,21,1.1,30.9
				c0,9.9-0.5,19-1.1,26.9c-1.2,15.8-3.3,26.3-3.3,26.3c-0.1,0.3-0.3,0.5-0.6,0.4c-0.2-0.1-0.3-0.2-0.4-0.4c0,0-2.1-10.5-3.3-26.3
				c-0.6-7.9-1.1-17.1-1.1-26.9c0.1-9.9,0.8-20.4,1.1-30.9c0.7-21,1.3-42,2.1-57.8c0.7-15.8,1.2-26.3,1.2-26.3
				c0-0.3,0.2-0.6,0.5-0.6C405.7,320.4,405.9,320.7,405.9,321z"/>
			
				<radialGradient id="XMLID_29_" cx="486.6644" cy="699.911" r="499.8302" gradientTransform="matrix(4.499940e-011 -1 2 8.999880e-011 -913.1577 1186.5754)" gradientUnits="userSpaceOnUse">
				<stop  offset="0" style="stop-color:#53DCBD"/>
				<stop  offset="0.1133" style="stop-color:#3CC2B4"/>
				<stop  offset="0.2441" style="stop-color:#27A9AB"/>
				<stop  offset="0.3242" style="stop-color:#1FA0A8"/>
				<stop  offset="0.6049" style="stop-color:#4489DC"/>
				<stop  offset="1" style="stop-color:#3B68D6"/>
			</radialGradient>
			<path id="XMLID_15424_" class="st29" d="M443.2,259.5c0,0,0.5,10.4,1.2,26.1c0.8,15.6,1.3,36.5,2.1,57.3
				c0.3,10.4,1,20.8,1.1,30.6c0,9.8-0.5,18.9-1.1,26.7c-1.2,15.6-3.3,26.1-3.3,26.1c-0.1,0.3-0.3,0.5-0.6,0.4
				c-0.2-0.1-0.3-0.2-0.3-0.4c0,0-2.1-10.4-3.3-26.1c-0.6-7.8-1.1-16.9-1.1-26.7c0.1-9.8,0.8-20.2,1.1-30.6
				c0.7-20.8,1.3-41.7,2.1-57.3c0.7-15.6,1.2-26.1,1.2-26.1c0-0.3,0.2-0.6,0.5-0.6C443,258.9,443.2,259.2,443.2,259.5z"/>
			
				<radialGradient id="XMLID_30_" cx="486.6644" cy="699.911" r="499.8302" gradientTransform="matrix(4.499940e-011 -1 2 8.999880e-011 -913.1577 1186.5754)" gradientUnits="userSpaceOnUse">
				<stop  offset="0" style="stop-color:#53DCBD"/>
				<stop  offset="0.1133" style="stop-color:#3CC2B4"/>
				<stop  offset="0.2441" style="stop-color:#27A9AB"/>
				<stop  offset="0.3242" style="stop-color:#1FA0A8"/>
				<stop  offset="0.6049" style="stop-color:#4489DC"/>
				<stop  offset="1" style="stop-color:#3B68D6"/>
			</radialGradient>
			<path id="XMLID_15423_" class="st30" d="M443.2,551.5c0,0,2.1,16.8,3.3,33.5c0.3,4.2,1.1,8.4,1.1,12.3c0,3.9-0.5,7.6-1.1,10.7
				c-1.2,6.3-3.3,10.5-3.3,10.5c-0.2,0.3-0.5,0.4-0.8,0.2c-0.1-0.1-0.1-0.1-0.2-0.2c0,0-2.1-4.2-3.3-10.5c-0.6-3.1-1.1-6.8-1.1-10.7
				c0.1-3.9,0.9-8.1,1.1-12.3c1.2-16.8,3.3-33.5,3.3-33.5c0-0.3,0.3-0.5,0.5-0.5C443,551,443.2,551.2,443.2,551.5z"/>
			
				<radialGradient id="XMLID_31_" cx="486.6644" cy="699.911" r="499.8302" gradientTransform="matrix(4.499940e-011 -1 2 8.999880e-011 -913.1577 1186.5754)" gradientUnits="userSpaceOnUse">
				<stop  offset="0" style="stop-color:#53DCBD"/>
				<stop  offset="0.1133" style="stop-color:#3CC2B4"/>
				<stop  offset="0.2441" style="stop-color:#27A9AB"/>
				<stop  offset="0.3242" style="stop-color:#1FA0A8"/>
				<stop  offset="0.6049" style="stop-color:#4489DC"/>
				<stop  offset="1" style="stop-color:#3B68D6"/>
			</radialGradient>
			<path id="XMLID_15421_" class="st31" d="M480.5,203.6c0,0,0.5,10.3,1.2,25.7c0.8,15.4,1.3,36,2.1,56.6c0.3,10.3,1,20.6,1.1,30.2
				c0,9.7-0.5,18.7-1.1,26.4c-1.2,15.4-3.3,25.7-3.3,25.7c-0.1,0.3-0.3,0.5-0.6,0.4c-0.2-0.1-0.3-0.2-0.3-0.4c0,0-2.1-10.3-3.3-25.7
				c-0.6-7.7-1.1-16.7-1.1-26.4c0.1-9.7,0.8-19.9,1.1-30.2c0.7-20.6,1.3-41.2,2.1-56.6c0.7-15.4,1.2-25.7,1.2-25.7
				c0-0.3,0.2-0.6,0.5-0.6C480.3,203,480.5,203.3,480.5,203.6z"/>
			
				<radialGradient id="XMLID_32_" cx="486.6644" cy="699.911" r="499.8302" gradientTransform="matrix(4.499940e-011 -1 2 8.999880e-011 -913.1577 1186.5754)" gradientUnits="userSpaceOnUse">
				<stop  offset="0" style="stop-color:#53DCBD"/>
				<stop  offset="0.1133" style="stop-color:#3CC2B4"/>
				<stop  offset="0.2441" style="stop-color:#27A9AB"/>
				<stop  offset="0.3242" style="stop-color:#1FA0A8"/>
				<stop  offset="0.6049" style="stop-color:#4489DC"/>
				<stop  offset="1" style="stop-color:#3B68D6"/>
			</radialGradient>
			<path id="XMLID_15420_" class="st32" d="M480.5,551.5c0,0,2.1,16.4,3.3,32.8c0.3,4.1,1.1,8.2,1.1,12c0,3.8-0.5,7.4-1.1,10.5
				c-1.2,6.1-3.3,10.2-3.3,10.2c-0.2,0.3-0.5,0.4-0.8,0.2c-0.1-0.1-0.1-0.1-0.2-0.2c0,0-2.1-4.1-3.3-10.2c-0.6-3.1-1.1-6.7-1.1-10.5
				c0.1-3.8,0.9-7.9,1.1-12c1.2-16.4,3.3-32.8,3.3-32.8c0-0.3,0.3-0.5,0.5-0.5C480.3,551,480.5,551.2,480.5,551.5z"/>
			
				<radialGradient id="XMLID_33_" cx="486.6644" cy="699.911" r="499.8302" gradientTransform="matrix(4.499940e-011 -1 2 8.999880e-011 -913.1577 1186.5754)" gradientUnits="userSpaceOnUse">
				<stop  offset="0" style="stop-color:#53DCBD"/>
				<stop  offset="0.1133" style="stop-color:#3CC2B4"/>
				<stop  offset="0.2441" style="stop-color:#27A9AB"/>
				<stop  offset="0.3242" style="stop-color:#1FA0A8"/>
				<stop  offset="0.6049" style="stop-color:#4489DC"/>
				<stop  offset="1" style="stop-color:#3B68D6"/>
			</radialGradient>
			<path id="XMLID_15419_" class="st33" d="M516.8,618.5c0,0-2.1-4.2-3.3-10.5c-0.6-3.1-1.1-6.8-1.1-10.7c0.1-3.9,0.9-8.1,1.1-12.3
				c1.2-16.8,3.3-33.5,3.3-33.5c0-0.3,0.3-0.5,0.5-0.5c0.2,0,0.4,0.2,0.4,0.5c0,0,2.1,16.8,3.3,33.5c0.3,4.2,1.1,8.4,1.1,12.3
				c0,3.9-0.5,7.6-1.1,10.7c-1.2,6.3-3.3,10.5-3.3,10.5c-0.2,0.3-0.5,0.4-0.8,0.2C516.9,618.7,516.9,618.6,516.8,618.5z"/>
			
				<radialGradient id="XMLID_34_" cx="486.6644" cy="699.911" r="499.8302" gradientTransform="matrix(4.499940e-011 -1 2 8.999880e-011 -913.1577 1186.5754)" gradientUnits="userSpaceOnUse">
				<stop  offset="0" style="stop-color:#53DCBD"/>
				<stop  offset="0.1133" style="stop-color:#3CC2B4"/>
				<stop  offset="0.2441" style="stop-color:#27A9AB"/>
				<stop  offset="0.3242" style="stop-color:#1FA0A8"/>
				<stop  offset="0.6049" style="stop-color:#4489DC"/>
				<stop  offset="1" style="stop-color:#3B68D6"/>
			</radialGradient>
			<path id="XMLID_15418_" class="st34" d="M517.8,260.8c0,0,0.5,10.7,1.2,26.7c0.8,16,1.3,37.4,2.1,58.8c0.3,10.7,1,21.4,1.1,31.4
				c0,10-0.5,19.4-1.1,27.4c-1.2,16-3.3,26.7-3.3,26.7c-0.1,0.3-0.3,0.5-0.6,0.4c-0.2-0.1-0.3-0.2-0.4-0.4c0,0-2.1-10.7-3.3-26.7
				c-0.6-8-1.1-17.4-1.1-27.4c0.1-10,0.8-20.7,1.1-31.4c0.7-21.4,1.3-42.7,2.1-58.8c0.7-16,1.2-26.7,1.2-26.7c0-0.3,0.2-0.6,0.5-0.6
				C517.6,260.3,517.8,260.5,517.8,260.8z"/>
			
				<radialGradient id="XMLID_35_" cx="486.6644" cy="699.911" r="499.8302" gradientTransform="matrix(4.499940e-011 -1 2 8.999880e-011 -913.1577 1186.5754)" gradientUnits="userSpaceOnUse">
				<stop  offset="0" style="stop-color:#53DCBD"/>
				<stop  offset="0.1133" style="stop-color:#3CC2B4"/>
				<stop  offset="0.2441" style="stop-color:#27A9AB"/>
				<stop  offset="0.3242" style="stop-color:#1FA0A8"/>
				<stop  offset="0.6049" style="stop-color:#4489DC"/>
				<stop  offset="1" style="stop-color:#3B68D6"/>
			</radialGradient>
			<path id="XMLID_15391_" class="st35" d="M555.1,322.1c0,0,0.5,10.8,1.2,27.1c0.8,16.3,1.3,37.9,2.1,59.6
				c0.3,10.8,1,21.7,1.1,31.8c0,10.2-0.5,19.6-1.1,27.8c-1.2,16.3-3.3,27.1-3.3,27.1c-0.1,0.3-0.3,0.5-0.6,0.4
				c-0.2-0.1-0.3-0.2-0.4-0.4c0,0-2.1-10.8-3.3-27.1c-0.6-8.1-1.1-17.6-1.1-27.8c0.1-10.2,0.8-21,1.1-31.8
				c0.7-21.7,1.3-43.4,2.1-59.6c0.7-16.3,1.2-27.1,1.2-27.1c0-0.3,0.2-0.6,0.5-0.6C554.9,321.6,555,321.8,555.1,322.1z"/>
			
				<radialGradient id="XMLID_36_" cx="486.6644" cy="699.911" r="499.8302" gradientTransform="matrix(4.499940e-011 -1 2 8.999880e-011 -913.1577 1186.5754)" gradientUnits="userSpaceOnUse">
				<stop  offset="0" style="stop-color:#53DCBD"/>
				<stop  offset="0.1133" style="stop-color:#3CC2B4"/>
				<stop  offset="0.2441" style="stop-color:#27A9AB"/>
				<stop  offset="0.3242" style="stop-color:#1FA0A8"/>
				<stop  offset="0.6049" style="stop-color:#4489DC"/>
				<stop  offset="1" style="stop-color:#3B68D6"/>
			</radialGradient>
			<path id="XMLID_15388_" class="st36" d="M554.1,622.4c0,0-2.1-4.4-3.3-11.1c-0.6-3.3-1.1-7.2-1.1-11.4c0.1-4.2,0.9-8.6,1.1-13
				c1.2-17.7,3.3-35.4,3.3-35.4c0-0.3,0.3-0.5,0.5-0.5c0.2,0,0.4,0.2,0.4,0.5c0,0,2.1,17.7,3.3,35.4c0.3,4.4,1.1,8.9,1.1,13
				c0,4.2-0.5,8-1.1,11.4c-1.2,6.6-3.3,11.1-3.3,11.1c-0.2,0.3-0.5,0.4-0.7,0.2C554.2,622.5,554.2,622.5,554.1,622.4z"/>
			
				<radialGradient id="XMLID_37_" cx="486.6644" cy="699.911" r="499.8302" gradientTransform="matrix(4.499940e-011 -1 2 8.999880e-011 -913.1577 1186.5754)" gradientUnits="userSpaceOnUse">
				<stop  offset="0" style="stop-color:#53DCBD"/>
				<stop  offset="0.1133" style="stop-color:#3CC2B4"/>
				<stop  offset="0.2441" style="stop-color:#27A9AB"/>
				<stop  offset="0.3242" style="stop-color:#1FA0A8"/>
				<stop  offset="0.6049" style="stop-color:#4489DC"/>
				<stop  offset="1" style="stop-color:#3B68D6"/>
			</radialGradient>
			<path id="XMLID_15083_" class="st37" d="M592.3,383.4c0,0,0.5,15.5,1.2,38.7c0.8,23.2,1.4,54.1,2.1,85c0.3,15.5,1,30.9,1.1,45.4
				c0,14.5-0.5,28-1.1,39.6c-1.2,23.2-3.3,38.7-3.3,38.7c0,0.3-0.3,0.5-0.5,0.5c-0.2,0-0.4-0.2-0.4-0.5c0,0-2.1-15.5-3.3-38.7
				c-0.6-11.6-1.1-25.1-1.1-39.6c0.1-14.5,0.8-30,1.1-45.4c0.7-30.9,1.3-61.8,2.1-85c0.7-23.2,1.2-38.7,1.2-38.7
				c0-0.3,0.2-0.6,0.5-0.6C592.1,382.9,592.3,383.1,592.3,383.4z"/>
			
				<radialGradient id="XMLID_38_" cx="486.6644" cy="699.911" r="499.8302" gradientTransform="matrix(4.499940e-011 -1 2 8.999880e-011 -913.1577 1186.5754)" gradientUnits="userSpaceOnUse">
				<stop  offset="0" style="stop-color:#53DCBD"/>
				<stop  offset="0.1133" style="stop-color:#3CC2B4"/>
				<stop  offset="0.2441" style="stop-color:#27A9AB"/>
				<stop  offset="0.3242" style="stop-color:#1FA0A8"/>
				<stop  offset="0.6049" style="stop-color:#4489DC"/>
				<stop  offset="1" style="stop-color:#3B68D6"/>
			</radialGradient>
			<path id="XMLID_15082_" class="st38" d="M629.6,444.7c0,0,0.5,12.4,1.2,30.9c0.8,18.5,1.3,43.2,2.1,67.9
				c0.3,12.4,1,24.7,1.1,36.3c0,11.6-0.5,22.4-1.1,31.6c-1.2,18.5-3.3,30.9-3.3,30.9c-0.1,0.3-0.3,0.5-0.6,0.5
				c-0.2-0.1-0.3-0.2-0.4-0.5c0,0-2.1-12.4-3.3-30.9c-0.6-9.3-1.1-20.1-1.1-31.6c0.1-11.6,0.8-23.9,1.1-36.3
				c0.7-24.7,1.3-49.4,2.1-67.9c0.7-18.5,1.2-30.9,1.2-30.9c0-0.3,0.2-0.6,0.5-0.6C629.4,444.2,629.6,444.4,629.6,444.7z"/>
			
				<radialGradient id="XMLID_39_" cx="486.6644" cy="699.911" r="499.8302" gradientTransform="matrix(4.499940e-011 -1 2 8.999880e-011 -913.1577 1186.5754)" gradientUnits="userSpaceOnUse">
				<stop  offset="0" style="stop-color:#53DCBD"/>
				<stop  offset="0.1133" style="stop-color:#3CC2B4"/>
				<stop  offset="0.2441" style="stop-color:#27A9AB"/>
				<stop  offset="0.3242" style="stop-color:#1FA0A8"/>
				<stop  offset="0.6049" style="stop-color:#4489DC"/>
				<stop  offset="1" style="stop-color:#3B68D6"/>
			</radialGradient>
			<path id="XMLID_15081_" class="st39" d="M666.9,506c0,0,0.5,9.5,1.2,23.7c0.8,14.2,1.3,33.2,2.1,52.2c0.3,9.5,1,19,1.1,27.9
				c0,8.9-0.5,17.2-1.1,24.3c-1.2,14.2-3.3,23.7-3.3,23.7c-0.1,0.3-0.3,0.5-0.6,0.4c-0.2-0.1-0.3-0.2-0.3-0.4c0,0-2.1-9.5-3.3-23.7
				c-0.6-7.1-1.1-15.4-1.1-24.3c0.1-8.9,0.8-18.4,1.1-27.9c0.7-19,1.3-37.9,2.1-52.2c0.7-14.2,1.2-23.7,1.2-23.7
				c0-0.3,0.2-0.6,0.5-0.5C666.7,505.5,666.9,505.7,666.9,506z"/>
			
				<radialGradient id="XMLID_40_" cx="486.6644" cy="699.911" r="499.8302" gradientTransform="matrix(4.499940e-011 -1 2 8.999880e-011 -913.1577 1186.5754)" gradientUnits="userSpaceOnUse">
				<stop  offset="0" style="stop-color:#53DCBD"/>
				<stop  offset="0.1133" style="stop-color:#3CC2B4"/>
				<stop  offset="0.2441" style="stop-color:#27A9AB"/>
				<stop  offset="0.3242" style="stop-color:#1FA0A8"/>
				<stop  offset="0.6049" style="stop-color:#4489DC"/>
				<stop  offset="1" style="stop-color:#3B68D6"/>
			</radialGradient>
			<path id="XMLID_15080_" class="st40" d="M704.2,567.3c0,0,0.6,7,1.2,17.5c0.8,10.5,1.3,24.5,2.1,38.5c0.3,7,1,14,1.1,20.5
				c0,6.6-0.5,12.7-1.1,17.9c-1.2,10.5-3.3,17.5-3.3,17.5c-0.1,0.3-0.4,0.5-0.6,0.4c-0.1-0.1-0.2-0.2-0.3-0.4c0,0-2.1-7-3.3-17.5
				c-0.6-5.2-1.1-11.4-1.1-17.9c0.1-6.6,0.8-13.6,1.1-20.5c0.7-14,1.3-28,2.1-38.5c0.6-10.5,1.2-17.5,1.2-17.5
				c0-0.3,0.3-0.6,0.5-0.5C704,566.8,704.2,567.1,704.2,567.3z"/>
			
				<radialGradient id="XMLID_41_" cx="486.6644" cy="699.911" r="499.8302" gradientTransform="matrix(4.499940e-011 -1 2 8.999880e-011 -913.1577 1186.5754)" gradientUnits="userSpaceOnUse">
				<stop  offset="0" style="stop-color:#53DCBD"/>
				<stop  offset="0.1133" style="stop-color:#3CC2B4"/>
				<stop  offset="0.2441" style="stop-color:#27A9AB"/>
				<stop  offset="0.3242" style="stop-color:#1FA0A8"/>
				<stop  offset="0.6049" style="stop-color:#4489DC"/>
				<stop  offset="1" style="stop-color:#3B68D6"/>
			</radialGradient>
			<path id="XMLID_15079_" class="st41" d="M741.5,628.6c0,0,0.6,4.9,1.2,12.4c0.8,7.4,1.3,17.3,2.1,27.2c0.3,4.9,1,9.9,1.1,14.5
				c0,4.6-0.5,9-1.1,12.7c-1.2,7.4-3.3,12.4-3.3,12.4c-0.1,0.3-0.5,0.4-0.7,0.3c-0.1-0.1-0.2-0.2-0.2-0.3c0,0-2.1-4.9-3.3-12.4
				c-0.6-3.7-1.1-8-1.1-12.7c0.1-4.6,0.8-9.6,1.1-14.5c0.7-9.9,1.3-19.8,2.1-27.2c0.6-7.4,1.2-12.4,1.2-12.4c0-0.3,0.3-0.5,0.5-0.5
				C741.3,628.2,741.4,628.4,741.5,628.6z"/>
		</g>
	</g>
</g>
</svg>
