<?xml version="1.0" encoding="utf-8"?>
<!-- Generator: Adobe Illustrator 19.0.0, SVG Export Plug-In . SVG Version: 6.00 Build 0)  -->
<svg version="1.1" id="Layer_1" xmlns="http://www.w3.org/2000/svg" xmlns:xlink="http://www.w3.org/1999/xlink" x="0px" y="0px"
	 viewBox="0 0 370.7 85.2" style="enable-background:new 0 0 370.7 85.2;" xml:space="preserve">
<style type="text/css">
	.st0{fill:#FFFFFF;}
	.st1{fill:none;}
</style>
<g id="XMLID_201_">
	<g id="XMLID_405_">
		<path id="XMLID_406_" class="st0" d="M58.4,41.6h3v24.7c-5.9,5.7-14.3,8.6-23.3,8.6c-19.9,0-34.6-14.4-34.6-33.7
			S18.2,7.4,38.1,7.4c9.3,0,17.6,2.9,23.4,8.8l-1.9,2.2c-6-5.8-13.2-8-21.4-8c-18.1,0-31.5,13.3-31.5,30.7s13.4,30.7,31.5,30.7
			c7.6,0,14.7-2,20.2-6.9V41.6z"/>
	</g>
	<path id="XMLID_404_" class="st1" d="M158,29.9c0-12.2-8.2-19.1-23.1-19.1h-20.1v38.4h20.1C149.8,49.1,158,42.1,158,29.9z"/>
	<path id="XMLID_401_" class="st0" d="M161.1,29.9c0-13.9-9.9-22.1-26.5-22.1h-23.1v66.6h3.2V52h19.9c2.6,0,5-0.2,7.2-0.6l16.5,22.9
		h3.8l-17-23.7C155.3,48,161.1,40.6,161.1,29.9z M134.9,49.1h-20.1V10.7h20.1c14.9,0,23.1,6.9,23.1,19.1
		C158,42.1,149.8,49.1,134.9,49.1z"/>
	<polygon id="XMLID_400_" class="st0" points="336.2,38.2 365.7,7.8 361.7,7.8 318.1,52.6 318.1,7.8 314.9,7.8 314.9,74.4 
		318.1,74.4 318.1,56.8 334,40.4 363.8,74.4 367.8,74.4 	"/>
	<g id="XMLID_206_">
		<path id="XMLID_399_" class="st1" d="M251.2,58.4C251.2,58.4,251.2,58.4,251.2,58.4C251.2,58.4,251.2,58.4,251.2,58.4z"/>
		<path id="XMLID_398_" class="st1" d="M262.8,39.6c0.1,0.4,0.1,0.7,0.2,1.1C262.9,40.3,262.9,39.9,262.8,39.6z"/>
		<path id="XMLID_397_" class="st1" d="M212,36.9c-0.5,0.7-0.7,1.8-0.9,2.7C211.3,38.6,211.7,37.7,212,36.9
			C212.1,36.8,212,36.9,212,36.9z"/>
		<path id="XMLID_396_" class="st1" d="M256.8,50.2c-0.6,1.5-1.3,2.9-2.1,4.2c0,0,0,0,0,0c0,0,0,0,0,0
			C255.5,53.1,256.2,51.7,256.8,50.2z"/>
		<path id="XMLID_395_" class="st1" d="M257.8,46.6c0,0.2-0.1,0.4-0.1,0.5c0-0.1,0.1-0.2,0.1-0.3C257.9,46.7,257.8,46.7,257.8,46.6z
			"/>
		<path id="XMLID_363_" class="st0" d="M260.8,42.5c0-0.6-0.1-1.2-0.2-1.8h2.4c-0.1-0.4-0.1-0.7-0.2-1.1c0-0.2-0.1-0.3-0.2-0.5
			c-0.4-0.4-0.9-0.6-1.4-0.5c-0.8,0.1-1.5,0.7-1.9,1.4s-0.5,1.5-0.7,2.3c-0.1,0.7-0.3,1.5-0.4,2.2c-0.1,0.7-0.3,1.4-0.4,2
			c0,0.1,0,0.1,0,0.2c0,0.1-0.1,0.2-0.1,0.3c-0.2,0.9-0.4,1.8-0.7,2.7c-0.1,0.1-0.2,0.3-0.2,0.4c-0.6,1.5-1.3,2.9-2.1,4.2
			c0,0,0,0,0,0c-1,1.5-2.1,2.8-3.4,4c0,0,0,0-0.1,0c-1.2,1.1-2.6,2.1-4.1,2.9c-3.1,1.7-6.6,2.6-10.2,2.6c-11.9,0-21.5-9.6-21.5-21.5
			c0-1.1,0.1-2.3,0.3-3.4c0.2-1,0.7-2.1,0.6-3.1c0-0.3-0.1-0.7-0.4-0.9c-0.3-0.3-0.7-0.3-1-0.3c-0.4,0-0.7,0.2-1,0.4
			c-0.7,0.4-1.4,1-1.9,1.7c-0.4,0.9-0.8,1.7-1,2.7c-0.1,0.3-0.1,0.7-0.2,1.1h2.4c0,0.6-0.2,1.2-0.2,1.8c0,0.5,0.1,0.9,0.1,1.3h-2.8
			c-0.1,1-0.1,2,0,2.7c0,1.4,0.3,3.1,0.6,4.8l3.3-1.4c0.3,1,0.7,2,1.2,2.9l-3.7,1.5c1.6,4.7,4.6,9.2,8.9,12.4
			c4.5,3.5,10.3,5.2,16.1,5.4c5.9-0.2,11.6-1.9,16.1-5.4c4.4-3.2,7.4-7.8,9-12.4l-3.7-1.5c0.5-0.9,0.8-1.9,1.2-3l3.3,1.4
			c0.5-2.5,0.7-5,0.6-7.4h-2.7C260.7,43.4,260.8,43,260.8,42.5z M218.2,63.3l-1.1-1.1l-1.1-1.1l3-3c0.7,0.8,1.4,1.6,2.2,2.3
			L218.2,63.3z M227.7,68.9l-2.9-1.2l1.6-3.9c0.9,0.5,1.9,0.9,2.9,1.2L227.7,68.9z M238.6,70.4h-3.2v-4.2c0.5,0,1,0.2,1.5,0.2
			c0.6,0,1.1-0.1,1.7-0.2V70.4z M246.3,68.9l-1.6-3.9c1-0.3,2-0.8,2.9-1.2l1.6,3.9L246.3,68.9z M256.9,62.2l-1.1,1.1l-3-3
			c0.8-0.7,1.5-1.5,2.2-2.3l3.1,3.1L256.9,62.2z"/>
		<circle id="XMLID_327_" class="st0" cx="225.8" cy="50.9" r="4.6"/>
		<circle id="XMLID_303_" class="st0" cx="245.2" cy="36.8" r="12.5"/>
		<path id="XMLID_302_" class="st0" d="M287.5,39.2c-2-3.3-4.7-8.1-8.9-13.4c-4.2-5.2-9.5-11.1-16.6-15.7c-3.5-2.3-7.5-4.2-11.8-5.6
			c-4.2-1.4-9-2-13.3-2.1c-4.7,0.1-9.1,0.7-13.4,2.1c-4.2,1.4-8.2,3.3-11.8,5.6c-7.1,4.6-12.4,10.5-16.5,15.7
			c-4.1,5.2-6.9,10-8.9,13.4c-1.9,3.4-3,5.3-3,5.3s1.2-1.8,3.4-5c2.2-3.2,5.4-7.6,9.7-12.6c4.3-5,9.8-10.4,16.6-14.7
			c3.4-2.2,7.2-3.9,11.2-5.2c4-1.2,8.4-1.7,12.5-1.8c4.5,0.1,8.6,0.6,12.6,1.8c4,1.3,7.8,3,11.2,5.2c6.8,4.3,12.4,9.7,16.7,14.6
			c4.3,5,7.5,9.4,9.7,12.6c2.1,3.2,3.4,5,3.4,5S289.4,42.6,287.5,39.2z"/>
		<path id="XMLID_212_" class="st0" d="M236.9,14.5c-20.8,0-44.4,16.2-49.4,33.9l-0.1,0.4l0.1,0.4c5,17.8,28.6,34.1,49.4,34.1
			c20.9,0,44.6-16.2,49.6-34.1l0.1-0.4l-0.1-0.4C281.4,30.7,257.8,14.5,236.9,14.5z M263.4,72.3c1.5-1.3,2.9-2.6,4.1-4.1
			c2.5-2.8,4.6-6,5.8-9.5c-1.3,1.2-2.5,2.4-3.8,3.5c-1.1,1-2.4,1.8-3.5,2.9c5.1-4.7,7.7-12,6.9-18.9c-0.4,5.2-2.5,10.3-6,14.2
			c2.7-4.5,3.9-9.7,3.6-14.9c-0.1-1.5-0.2-3.5-0.8-5c0.3,4.9-0.5,10.4-2.7,15.3c-2.4,5.5-6.6,10.5-11.9,14.1
			c-5.2,3.5-11.8,5.5-18.2,5.5c-6.5,0-12.9-2-18.2-5.5c-5.3-3.5-9.4-8.5-11.9-14.1c-1.2-2.8-2.1-5.6-2.5-8.6
			c-0.3-1.8-0.3-3.7-0.3-5.5c-0.9,2.4-1.3,5-1,7.6c0.4,3.8,1.8,7.2,3.1,10.8c-3.1-2.6-5.2-6.6-5.5-10.6c-0.4,3.5,0.6,7.1,2.2,10.3
			c1.6,3.2,3.9,6,6.1,8.7c-3.5-1.7-6.4-4.8-7.8-8.4c0.2,3.4,2.8,6.2,5.4,8.5c2.2,1.9,4.4,3.7,6.7,5.4c-11-5.9-20.1-15.2-23-25.1
			c5-16.6,27.1-31.5,46.6-31.5c19.6,0,41.8,15,46.8,31.5C281,57.9,273.1,66.4,263.4,72.3z"/>
		<path id="XMLID_209_" class="st0" d="M277,50.5c1,0.8,2.6,0.7,3.5-0.1c0.4-0.3,0.7-0.9,0.5-1.4c-0.1-0.4-0.5-0.8-0.9-1
			c-0.8-0.6-2.2-2.4-3.3-1.8c-0.6,0.3-0.9,1.5-0.9,2.1c0,0.8,0.2,1.5,0.8,2.1C276.8,50.4,276.9,50.4,277,50.5z"/>
	</g>
</g>
</svg>
