<?xml version="1.0" encoding="utf-8"?>
<!-- Generator: Adobe Illustrator 19.0.0, SVG Export Plug-In . SVG Version: 6.00 Build 0)  -->
<svg version="1.1" id="Layer_1" xmlns="http://www.w3.org/2000/svg" xmlns:xlink="http://www.w3.org/1999/xlink" x="0px" y="0px"
	 viewBox="0 0 370.7 85.2" style="enable-background:new 0 0 370.7 85.2;" xml:space="preserve">
<style type="text/css">
	.st0{clip-path:url(#XMLID_99_);fill:#FFFFFF;}
	.st1{clip-path:url(#XMLID_99_);}
	.st2{filter:url(#Adobe_OpacityMaskFilter);}
	.st3{clip-path:url(#XMLID_99_);mask:url(#XMLID_100_);}
	.st4{fill:none;stroke:#000000;stroke-width:3.2217;stroke-miterlimit:10;}
	.st5{fill:none;stroke:#000000;stroke-width:2.819;stroke-miterlimit:10;}
	.st6{fill:#FFFFFF;}
</style>
<g id="XMLID_97_">
	<path id="XMLID_447_" d="M56.2,41.3h3.1v25c-6,5.8-14.5,8.7-23.7,8.7C15.4,75,0.5,60.4,0.5,40.8s15-34.2,35.2-34.2
		c9.5,0,17.9,2.9,23.8,8.9l-1.9,2.2C51.4,11.8,44,9.6,35.7,9.6c-18.4,0-32,13.5-32,31.2S17.4,72,35.7,72c7.7,0,14.9-2,20.5-7.1V41.3
		z"/>
	<path id="XMLID_444_" d="M157.7,74.6L141,51.4c-2.2,0.4-4.7,0.6-7.3,0.6h-20.2v22.7h-3.3V7h23.5c16.8,0,26.9,8.3,26.9,22.4
		c0,10.9-5.9,18.4-16.2,21.2l17.3,24.1H157.7z M133.8,48.9c15.2,0,23.5-7.1,23.5-19.5c0-12.4-8.3-19.4-23.5-19.4h-20.4v38.9H133.8z"
		/>
	<path id="XMLID_442_" d="M335.9,40.2l-16.1,16.6v17.9h-3.3V7h3.3v45.5L364,7h4.1l-29.9,30.9l32.1,36.7h-4.1L335.9,40.2z"/>
	<g id="XMLID_328_">
		<g id="XMLID_329_">
			<defs>
				<path id="XMLID_439_" d="M286.4,48.6c-5,17.8-28.4,33.6-49,33.6c-20.5,0-43.8-15.8-48.8-33.6c5-17.6,28.4-33.4,48.8-33.4
					C257.9,15.2,281.3,31,286.4,48.6z"/>
			</defs>
			<use xlink:href="#XMLID_439_"  style="overflow:visible;fill:#FFFFFF;"/>
			<clipPath id="XMLID_99_">
				<use xlink:href="#XMLID_439_"  style="overflow:visible;"/>
			</clipPath>
			<circle id="XMLID_441_" class="st0" cx="237.4" cy="42.3" r="31.7"/>
			<circle id="XMLID_440_" class="st1" cx="237.4" cy="42.3" r="21.8"/>
			<defs>
				<filter id="Adobe_OpacityMaskFilter" filterUnits="userSpaceOnUse" x="204" y="8.9" width="66.7" height="66.7">
					<feFlood  style="flood-color:white;flood-opacity:1" result="back"/>
					<feBlend  in="SourceGraphic" in2="back" mode="normal"/>
				</filter>
			</defs>
			<mask maskUnits="userSpaceOnUse" x="204" y="8.9" width="66.7" height="66.7" id="XMLID_100_">
				<g id="XMLID_95_" class="st2">
					<circle id="XMLID_96_" class="st1" cx="237.4" cy="42.3" r="24.2"/>
				</g>
			</mask>
			<g id="XMLID_408_" class="st3">
				<g id="XMLID_434_">
					<path id="XMLID_110_" d="M237.8,18.8c0,0-0.8,0-2.2,0.1c-0.2,0-0.4,0-0.6,0c-0.2,0-0.5,0-0.6,0c-0.3,0.1-0.6,0.1-0.9,0.2
						c-0.3,0.1-0.6,0.1-1.1,0.2c-0.4,0.1-0.9,0.2-1.4,0.3c-2,0.5-4.3,1.2-6.8,2.7c-2.5,1.4-5.2,3.4-7.6,6.2c-1.1,1.4-2.3,3-3.2,4.8
						c-0.2,0.5-0.5,0.9-0.7,1.4c-0.2,0.5-0.4,1-0.6,1.5c-0.5,1-0.7,2.1-1,3.1c-0.2,0.5-0.2,1.1-0.3,1.7l-0.2,0.9l-0.1,0.4
						c0,0.2,0-0.3,0-0.2l0,0.1l0,0.1l0,0.3c-0.1,1.3-0.2,2.9-0.1,3.9c0,0.6,0,1.1,0.1,1.7c0.1,0.6,0.2,1.2,0.2,1.9
						c0,0.6,0.2,1.2,0.4,1.9c0.2,0.6,0.3,1.3,0.5,1.9c0.8,2.5,2,4.9,3.5,7.2c0.8,1.1,1.7,2.2,2.7,3.2c0.9,1.1,2.1,1.9,3.2,2.8
						l1.8,1.2c0.6,0.4,1.3,0.7,1.9,1.1l1,0.5c0.3,0.2,0.7,0.3,1,0.4c0.7,0.3,1.3,0.6,2,0.8l2.1,0.6c0.7,0.2,1.4,0.3,2.2,0.4
						c0.7,0.1,1.5,0.3,2.2,0.3l1.1,0.1l0.6,0l0.3,0l0.1,0l0.1,0c0,0,0.1,0,0,0c1.5-0.1,3.2-0.1,4.5-0.4c0.7-0.1,1.4-0.2,2.1-0.4
						l2.1-0.6c0.7-0.2,1.4-0.5,2-0.8c0.3-0.1,0.7-0.3,1-0.4l1-0.5c0.6-0.4,1.3-0.7,1.9-1.1l1.8-1.2c1.1-0.9,2.2-1.8,3.2-2.8
						c1-1,1.9-2.1,2.7-3.2c1.5-2.3,2.8-4.7,3.5-7.2c0.8-2.5,1.2-5,1.2-7.4c0.1-1.2-0.1-2.4-0.2-3.6c-0.1-0.6-0.2-1.1-0.3-1.7l-0.2-1
						c-0.1-0.3-0.1-0.7-0.2-0.9c-0.2-0.5-0.3-1-0.5-1.4c-0.1-0.2-0.1-0.5-0.2-0.7l-0.3-0.8c-0.2-0.5-0.4-1-0.6-1.5
						c-0.2-0.5-0.5-0.9-0.7-1.4c-0.9-1.8-2.1-3.4-3.2-4.8c-2.4-2.8-5.1-4.8-7.6-6.2c-2.5-1.4-4.9-2.2-6.8-2.7
						c-0.5-0.1-1-0.2-1.4-0.3c-0.4-0.1-0.9-0.1-1.2-0.2c-0.4-0.1-0.7-0.1-1.1-0.2c-0.3,0-0.6,0-0.9,0c-1.1,0-1.7-0.1-1.7-0.1
						L237.8,18.8z M237.4,8.9c0,0,0.8,0,2.3,0.1c0.4,0,0.8,0,1.3,0.1c0.5,0.1,1,0.1,1.5,0.2c0.5,0.1,1.1,0.2,1.8,0.3
						c0.6,0.2,1.3,0.3,2,0.5c2.7,0.8,6.1,2,9.4,4.2c3.3,2.2,6.7,5.3,9.5,9.4c1.3,2.1,2.6,4.3,3.5,6.8c0.2,0.6,0.5,1.2,0.7,1.9
						c0.2,0.7,0.3,1.3,0.5,2c0.4,1.3,0.5,2.8,0.7,4.2c0.1,0.7,0.1,1.4,0.1,2l0.1,1l0,0.5c0-0.1,0,0.1,0,0.1l0,0.1l0,0.1l0,0.3
						c-0.1,1.4-0.1,2.9-0.4,4.4c-0.4,2.9-1.3,5.8-2.5,8.7c-1.2,2.8-2.9,5.5-4.9,7.9c-2,2.4-4.5,4.5-7.1,6.4
						c-2.7,1.8-5.7,3.1-8.8,4.1c-3.1,0.9-6.6,1.4-9.6,1.4l-2.5-0.1c-0.8,0-1.6-0.1-2.4-0.3c-0.8-0.1-1.6-0.2-2.4-0.4l-2.4-0.6
						c-3.1-1-6.1-2.4-8.8-4.1c-2.7-1.8-5.1-3.9-7.1-6.4c-2-2.5-3.7-5.1-4.9-7.9c-1.2-2.8-2.1-5.7-2.5-8.7c-0.3-1.5-0.3-2.9-0.4-4.3
						l0-0.3l0-0.1l0-0.1c0,0,0-0.2,0-0.1l0-0.5l0.1-1.1c0.1-0.7,0-1.4,0.1-2.1c0.7-5.6,2.7-10.7,5.4-14.8c2.7-4.1,6.1-7.2,9.5-9.4
						c3.3-2.2,6.6-3.5,9.4-4.2c0.7-0.2,1.4-0.3,2-0.5c0.6-0.1,1.2-0.2,1.8-0.3c0.6-0.1,1.1-0.2,1.6-0.2c0.5-0.1,0.9-0.1,1.2-0.1
						C236.5,9,237.3,8.9,237.4,8.9L237.4,8.9z"/>
				</g>
				<g id="XMLID_411_">
					<g id="XMLID_158_">
						<line id="XMLID_159_" class="st4" x1="263.9" y1="53" x2="211.1" y2="31.1"/>
					</g>
					<g id="XMLID_155_">
						<line id="XMLID_156_" class="st4" x1="257.7" y1="62.2" x2="217.3" y2="21.8"/>
					</g>
					<g id="XMLID_152_">
						<line id="XMLID_153_" class="st4" x1="248.4" y1="68.4" x2="226.5" y2="15.6"/>
					</g>
					<g id="XMLID_149_">
						<line id="XMLID_150_" class="st4" x1="237.5" y1="70.6" x2="237.5" y2="13.4"/>
					</g>
					<g id="XMLID_141_">
						<line id="XMLID_142_" class="st4" x1="226.5" y1="68.4" x2="248.4" y2="15.6"/>
					</g>
					<g id="XMLID_138_">
						<line id="XMLID_139_" class="st4" x1="217.3" y1="62.2" x2="257.7" y2="21.8"/>
					</g>
					<g id="XMLID_135_">
						<line id="XMLID_136_" class="st4" x1="211.1" y1="53" x2="263.9" y2="31.1"/>
					</g>
					<g id="XMLID_132_">
						<line id="XMLID_133_" class="st4" x1="208.9" y1="42" x2="266" y2="42"/>
					</g>
				</g>
			</g>
			<circle id="XMLID_332_" class="st0" cx="226.1" cy="50.8" r="4.7"/>
			<path id="XMLID_331_" class="st1" d="M263.7,11.6c-3.5-2.8-7.3-5.2-11.4-7c-14.4-6.4-32-4.7-44.9,4.2c-3.8,2.6-7.2,5.9-10,9.5
				c-2.8,3.6-4.3,7.7-6.7,11.4c-1.7,2.6-2.3,5.3-3,8.3c-0.7,2.6-1.8,4.7-1.3,7.5c0.4,2.5,1.5,4.8,2.8,7c1.5,2.3,3.1,4.4,4.7,6.6
				c1.3,1.7,3.2,2.7,4.4,4.5c0.8,1.2,1.5,2.5,2.3,3.6c0.7,1.1,1.7,2.1,2.6,3c1.9,2,4,3.7,6.2,5.4c1.8,1.3,3.7,2.5,5.8,3.2
				c2.1,0.7,3.9,0.6,6.2,0.5c-5.2-3.1-10.1-6.7-14.7-10.7c-2.6-2.3-5.3-5.1-5.5-8.6c1.5,3.7,4.4,6.8,8,8.6c-2.3-2.8-4.5-5.7-6.2-8.9
				c-1.7-3.2-2.7-6.8-2.3-10.4c0.4,4.2,2.4,8.1,5.6,10.8c-1.4-3.6-2.8-7-3.2-10.9c-0.3-3.4,0.1-6.9,1.8-9.9c0.9-1.7,2.3-3.1,3.9-4.1
				c1.7-1.1,5.2-2.8,7-1.4c0.9,0.7,1.3,2,1,3.2c1.3-1.7,2.6-3.3,4.2-4.6c3.9-3,10.1-3.1,14.8-3c4.6,0.1,9.2,0.8,13.7,1.8
				c3.5,0.8,6.5,2.2,8.3,5.5c1.4,2.6,1.7,5.8,0.8,8.6c1.4-1.9,2.1-4.3,1.8-6.6c-0.1-0.7-0.3-1.5,0-2.2c0.8-2.7,7.7,1.1,9,2.1
				c1.8,1.3,1.8,4.6,2,6.8c0.3,5.3-0.9,10.6-3.6,15.1c3.5-4,5.7-9.1,6.1-14.4c0.9,7-1.8,14.4-7,19.2c1.1-1.1,2.5-1.9,3.6-2.9
				c1.3-1.2,2.6-2.4,3.9-3.6c-1.2,3.6-3.4,6.8-5.9,9.7c-2.5,2.8-5.4,5.3-8.4,7.6c2.3,0.3,4.8-0.4,6.6-1.8c0.9-0.7,1.7-1.5,2.6-2.2
				c1-0.7,2.2-0.9,3.2-1.5c1.1-0.7,2.1-1.4,3.1-2.3c1.9-1.7,3.4-3.9,5.6-5.3c2.7-1.8,4.9-5.4,6.7-8.1c0.9-1.5,1.7-3,1.9-4.7
				c0.4-3-2.2-5.6-3.4-8.2c-1.3-2.9-2.8-5.8-4.5-8.6c-3.2-5.5-6.9-10.6-11.3-15.2C268.5,15.8,266.2,13.6,263.7,11.6z"/>
			<circle id="XMLID_330_" class="st0" cx="245.8" cy="36.5" r="12.7"/>
		</g>
	</g>
	<g id="XMLID_308_">
		<path id="XMLID_105_" d="M185.1,44.2c0,0,0-0.6,0-1.6c0.1-1.1,0.3-2.7,1-4.6c0.6-1.9,1.7-4.1,3-6.5c1.4-2.4,3.1-5,5.2-7.7
			c2.1-2.7,4.7-5.4,7.6-7.9c2.9-2.6,6.2-5,10-7.2c3.7-2.1,7.8-3.9,12.1-5.2c1.1-0.3,2.2-0.6,3.3-0.8c1.1-0.2,2.2-0.5,3.4-0.6
			c2.3-0.4,4.5-0.5,6.9-0.5c1.1,0.1,2.2,0,3.4,0.2l1.7,0.2l1.7,0.2c1.1,0.1,2.2,0.4,3.4,0.6c1.1,0.3,2.2,0.5,3.3,0.9
			c4.3,1.3,8.4,3.1,12,5.2c3.7,2.1,7,4.6,9.9,7.2c2.9,2.6,5.5,5.3,7.6,7.9c4.2,5.3,6.9,10.4,8.2,14.2c0.7,1.9,0.9,3.4,1.1,4.5
			c0.1,1.1,0.1,1.6,0.1,1.6c0,0.2-0.2,0.4-0.4,0.4c-0.2,0-0.3-0.1-0.4-0.2l0,0c0,0-0.2-0.5-0.5-1.5c-0.4-1-0.9-2.4-1.7-4.1
			c-0.8-1.7-1.7-3.8-3.1-6.1c-1.3-2.3-3.1-4.7-5.2-7.3c-2.1-2.5-4.5-5.1-7.4-7.5c-2.8-2.4-6-4.8-9.6-6.8c-3.5-2-7.4-3.7-11.5-4.9
			c-1-0.3-2.1-0.5-3.1-0.8c-1.1-0.2-2.1-0.4-3.2-0.6l-1.6-0.2l-1.6-0.1c-1-0.1-2.2-0.1-3.3-0.1c-4.2,0-8.6,0.6-12.6,1.8
			c-4.1,1.2-7.9,2.9-11.5,4.9c-3.5,2-6.7,4.4-9.5,6.8c-2.8,2.4-5.2,5-7.3,7.5c-2.1,2.5-3.8,5-5.1,7.2c-1.4,2.3-2.3,4.4-3,6.1
			c-0.8,1.7-1.3,3.1-1.7,4c-0.4,1-0.6,1.5-0.6,1.5c-0.1,0.2-0.4,0.3-0.6,0.2C185.2,44.5,185.1,44.3,185.1,44.2z"/>
	</g>
	<path id="XMLID_307_" class="st5" d="M286.4,48.6c-5,17.8-28.4,33.6-49,33.6c-20.5,0-43.8-15.8-48.8-33.6
		c5-17.6,28.4-33.4,48.8-33.4C257.9,15.2,281.3,31,286.4,48.6z"/>
	<path id="XMLID_306_" class="st6" d="M277.8,50.1c-0.5-0.6-0.8-1.4-0.8-2.1c0-0.6,0.3-1.8,0.9-2.1c1.1-0.5,2.6,1.3,3.4,1.9
		c0.4,0.3,0.8,0.6,0.9,1.1c0.1,0.5-0.2,1-0.5,1.4c-1,0.9-2.6,1-3.6,0.1C277.9,50.3,277.9,50.2,277.8,50.1z"/>
</g>
</svg>
